<svg id="Component_241_1" data-name="Component 241 – 1" xmlns="http://www.w3.org/2000/svg" width="15.574" height="15.574" viewBox="0 0 15.574 15.574">
  <g id="Search">
    <path id="Path_2" data-name="Path 2" d="M1.947,6.814A4.82,4.82,0,0,1,6.814,1.947a4.82,4.82,0,0,1,4.867,4.867,4.82,4.82,0,0,1-4.867,4.867A4.82,4.82,0,0,1,1.947,6.814Zm11.973,8.468a.964.964,0,0,0,1.363-1.363L12.265,10.9a6.665,6.665,0,0,0,1.363-4.088A6.772,6.772,0,0,0,6.814,0,6.772,6.772,0,0,0,0,6.814a6.772,6.772,0,0,0,6.814,6.814A6.665,6.665,0,0,0,10.9,12.265Z" fill="#fff"/>
  </g>
</svg>
