<svg id="Component_227_1" data-name="Component 227 – 1" xmlns="http://www.w3.org/2000/svg" xmlns:xlink="http://www.w3.org/1999/xlink" width="683" height="1233" viewBox="0 0 683 1233">
  <defs>
    <clipPath id="clip-path">
      <rect id="Rectangle_10624" data-name="Rectangle 10624" width="683" height="1233" transform="translate(0 -426)" fill="#fff"/>
    </clipPath>
    <linearGradient id="linear-gradient" x1="0.73" y1="0.467" x2="0.5" y2="1" gradientUnits="objectBoundingBox">
      <stop offset="0" stop-color="#1587c3"/>
      <stop offset="1" stop-color="#1f568c"/>
    </linearGradient>
    <clipPath id="clip-path-2">
      <rect id="Rectangle_10830" data-name="Rectangle 10830" width="317.932" height="317.932" fill="#fff"/>
    </clipPath>
    <clipPath id="clip-path-3">
      <rect id="Rectangle_10831" data-name="Rectangle 10831" width="318.225" height="318.225" fill="#fff"/>
    </clipPath>
  </defs>
  <g id="Mask_Group_138" data-name="Mask Group 138" transform="translate(0 426)" clip-path="url(#clip-path)">
    <path id="Path_59109" data-name="Path 59109" d="M60,0H859a60,60,0,0,1,60,60V1073a60,60,0,0,1-60,60H60a60,60,0,0,1-60-60V60A60,60,0,0,1,60,0Z" transform="translate(-827.147 69.429) rotate(-49)" fill="url(#linear-gradient)"/>
    <g id="Group_53623" data-name="Group 53623" transform="translate(29.733 59.098)">
      <path id="Path_45467" data-name="Path 45467" d="M95.093,195.125c53.871-1.193,98.654-45.834,100.024-99.71S153.928-1.168,100.057.024,1.4,45.859.032,99.734,41.222,196.318,95.093,195.125Z" transform="translate(192.526 7.079) rotate(80.595)" fill="none" stroke="#fff" stroke-linecap="round" stroke-width="2" stroke-dasharray="0 5" opacity="0.32"/>
      <ellipse id="Ellipse_2278" data-name="Ellipse 2278" cx="9.757" cy="9.757" rx="9.757" ry="9.757" transform="translate(5.913 124.927)" fill="#fff" opacity="0.88"/>
      <ellipse id="Ellipse_2279" data-name="Ellipse 2279" cx="19.515" cy="19.515" rx="19.515" ry="19.515" transform="translate(59.602 188.124)" fill="#f9fbfc"/>
      <circle id="Ellipse_2281" data-name="Ellipse 2281" cx="35.397" cy="35.397" r="35.397" transform="translate(41.415 0)" fill="#f2f5f8"/>
    </g>
    <g id="Group_54498" data-name="Group 54498" transform="translate(350.633 -89.808) rotate(42)" opacity="0.31" style="mix-blend-mode: normal;isolation: isolate">
      <g id="Group_54471" data-name="Group 54471" transform="translate(24.386 31.159)">
        <path id="Path_60199" data-name="Path 60199" d="M61.3,83.18a2.836,2.836,0,1,1,2.836,2.837A2.836,2.836,0,0,1,61.3,83.18Z" transform="translate(202.477 169.889)" fill="#fff"/>
        <path id="Path_60200" data-name="Path 60200" d="M724.435,712.248a2.836,2.836,0,1,1,2.837,2.837A2.836,2.836,0,0,1,724.435,712.248Z" transform="translate(-724.435 -709.411)" fill="#fff"/>
      </g>
      <g id="Group_54485" data-name="Group 54485" transform="translate(0 0.065)">
        <g id="Group_54484" data-name="Group 54484" clip-path="url(#clip-path-3)">
          <g id="Group_54483" data-name="Group 54483" transform="translate(64.546 -9.238)">
            <g id="Group_54482" data-name="Group 54482">
              <g id="Group_54481" data-name="Group 54481">
                <path id="Path_60256" data-name="Path 60256" d="M-20.018,520.792a1.641,1.641,0,0,1,1.651-1.63,1.643,1.643,0,0,1,1.654,1.63,1.641,1.641,0,0,1-1.654,1.627A1.638,1.638,0,0,1-20.018,520.792Z" transform="translate(278.355 -400.736)" fill="#fff"/>
                <g id="Group_54479" data-name="Group 54479" transform="translate(248.159 41.28)">
                  <path id="Path_60257" data-name="Path 60257" d="M2.984,704.539l-3.6,2.08-3.6,2.077v-8.319l3.6,2.078Z" transform="translate(4.212 -700.377)" fill="#fff"/>
                </g>
                <path id="Path_60258" data-name="Path 60258" d="M91.312,807.135a1.652,1.652,0,1,1,1.652,1.627A1.64,1.64,0,0,1,91.312,807.135Z" transform="translate(122.742 -800.981)" fill="#fff"/>
                <g id="Group_54480" data-name="Group 54480">
                  <path id="Path_60259" data-name="Path 60259" d="M364.464,741.3a7.016,7.016,0,1,0-7.11-7.014A7.071,7.071,0,0,0,364.464,741.3Zm0-13.626a6.612,6.612,0,1,1-6.7,6.612A6.665,6.665,0,0,1,364.466,727.676Z" transform="translate(-260.047 -702.402)" fill="#fff"/>
                  <path id="Path_60260" data-name="Path 60260" d="M42.129,581.316A5.559,5.559,0,1,0,36.57,586.8,5.527,5.527,0,0,0,42.129,581.316Zm-10.092,0a4.534,4.534,0,1,1,4.534,4.473A4.509,4.509,0,0,1,32.037,581.316Z" transform="translate(199.214 -487.66)" fill="#fff"/>
                  <path id="Path_60261" data-name="Path 60261" d="M418.193,717.828a2.455,2.455,0,1,0,2.489,2.456A2.469,2.469,0,0,0,418.193,717.828Z" transform="translate(-332.362 -680.08)" fill="#fff"/>
                  <path id="Path_60262" data-name="Path 60262" d="M-13.875,472.841a2.474,2.474,0,0,0,2.488-2.456,2.437,2.437,0,0,0-.058-.526H25.927l7.594,8.934H19.382a1.623,1.623,0,1,0,0,1.009H45.367a10.478,10.478,0,0,0,20.915,0h11.2l13.246,13.068h23.281a2.5,2.5,0,0,0,4.871,0h10.739l-9.378,9.253H91.383a1.628,1.628,0,1,0,0,1.011h29.285l10.4-10.263H139.8a26.535,26.535,0,0,0,4.649,14.513l-.014-.015-9.929,9.795.716.706L122.3,510.509l-13.082,7.451v14.9l13.081,7.451,13.083-7.451v-14.9l-.147-.084,9.8-9.67A27.39,27.39,0,0,0,166.6,519.295V524.2l-8.472,4.826v3.743l-7.493,7.392V527.686l3.1-3.053-.724-.716-3.4,3.351v13.907l-7.245,7.148v18.051l-6.118,6.036a1.621,1.621,0,1,0,.909,1.448,1.6,1.6,0,0,0-.185-.734l6.418-6.333V548.741L158.127,534.2v4.561l-11.918,11.758v29.251h1.025V550.939L158.724,539.6l7.875,4.487v10.431l11.846,11.686v11.159a2.448,2.448,0,0,0,0,4.8v12.291a1.653,1.653,0,1,0,1.024,0v-12.29a2.448,2.448,0,0,0,0-4.8V565.788L167.624,554.1V544.091l8.472-4.828V529.029l-5.61-3.2V515.506a23.772,23.772,0,0,0,12.747-6.022l4.379,4.32h18.416a1.628,1.628,0,1,0,.092-1.011H188.036l-4.066-4.012a23.11,23.11,0,0,0,0-32.832l1.828-1.8a25.672,25.672,0,0,1,7.6,18.219h1.024a26.672,26.672,0,0,0-7.9-18.934L209.2,451.059a1.622,1.622,0,1,0-.908-1.45,1.6,1.6,0,0,0,.185.734l-22.691,22.385a27.409,27.409,0,0,0-18.673-7.307v1.011a26.373,26.373,0,0,1,17.948,7.012l-1.828,1.8a23.873,23.873,0,0,0-32.5.245l-8.4-8.289H127.9l-17.87-17.629a1.6,1.6,0,0,0,.1-.532,1.652,1.652,0,1,0-1.651,1.63,1.664,1.664,0,0,0,.93-.285L126.451,467.2h-4.161l-17.842-17.6a1.6,1.6,0,0,0,.107-.561,1.647,1.647,0,1,0-.743,1.361l17.029,16.8H99.986a1.63,1.63,0,1,0,0,1.01h21.878l.076.074.075-.074h5.46l.075.074.075-.074h14.282l8.1,7.992a23.131,23.131,0,0,0-6.6,16.16A23.556,23.556,0,0,0,166.6,515.734v2.552a26.129,26.129,0,0,1-25.775-25.92v-.505h-21.94a2.5,2.5,0,0,0-4.871,0H91.153L77.908,478.793H66.282a10.478,10.478,0,0,0-20.915,0H34.859L26.4,468.848H-11.935a2.5,2.5,0,0,0-1.94-.92,2.474,2.474,0,0,0-2.49,2.456A2.472,2.472,0,0,0-13.875,472.841ZM134.359,532.28,122.3,539.149l-12.058-6.868V518.544l12.058-6.868,12.059,6.868Zm40.713,6.4-7.96,4.534-7.962-4.532v-9.072l7.962-4.533,7.96,4.533Zm-5.609-13.432-1.839-1.048v-8.469c.619-.013,1.233-.043,1.84-.1Zm-1.84-33.095-13.782-13.6a19.159,19.159,0,1,1,13.783,32.836Zm-1.023.419v18.819a19.183,19.183,0,0,1-18.788-19.029,18.837,18.837,0,0,1,5.306-13.093Zm.513-22.581a22.367,22.367,0,1,1,.511,44.73V511.8a19.446,19.446,0,1,0-14.072-33.526l-2.1-2.068A22.756,22.756,0,0,1,167.113,469.994Zm-22.678,22.371a22.132,22.132,0,0,1,6.3-15.446l2.1,2.068a19.235,19.235,0,0,0-5.427,13.378A19.591,19.591,0,0,0,166.6,511.8v2.925A22.54,22.54,0,0,1,144.435,492.365Zm-88.61-22.387a9.32,9.32,0,1,1-9.447,9.32A9.395,9.395,0,0,1,55.825,469.978Z" transform="translate(48.594 -447.412)" fill="#fff"/>
                  <path id="Path_60263" data-name="Path 60263" d="M109.547,533.409a2.456,2.456,0,1,0-2.489-2.455A2.473,2.473,0,0,0,109.547,533.409Z" transform="translate(99.057 -415.44)" fill="#fff"/>
                  <path id="Path_60264" data-name="Path 60264" d="M109.547,552.346a2.456,2.456,0,1,0-2.489-2.455A2.473,2.473,0,0,0,109.547,552.346Z" transform="translate(99.057 -441.91)" fill="#fff"/>
                  <path id="Path_60265" data-name="Path 60265" d="M251.144,613.1a2.456,2.456,0,1,0,2.49,2.455A2.471,2.471,0,0,0,251.144,613.1Z" transform="translate(-98.865 -533.692)" fill="#fff"/>
                  <path id="Path_60266" data-name="Path 60266" d="M251.144,636.944a2.455,2.455,0,1,0-2.487-2.455A2.472,2.472,0,0,0,251.144,636.944Z" transform="translate(-98.866 -560.16)" fill="#fff"/>
                  <path id="Path_60267" data-name="Path 60267" d="M44.138,587.151a1.652,1.652,0,1,0-1.651,1.63A1.639,1.639,0,0,0,44.138,587.151Z" transform="translate(193.299 -493.495)" fill="#fff"/>
                  <path id="Path_60268" data-name="Path 60268" d="M87.053,806.78a5.485,5.485,0,1,0-5.559-5.483A5.526,5.526,0,0,0,87.053,806.78Zm0-9.956a4.473,4.473,0,1,1-4.534,4.473A4.509,4.509,0,0,1,87.053,796.824Z" transform="translate(128.654 -795.144)" fill="#fff"/>
                  <path id="Path_60269" data-name="Path 60269" d="M-29.834,514.951a5.526,5.526,0,0,0,5.558,5.483,5.527,5.527,0,0,0,5.558-5.483,5.526,5.526,0,0,0-5.558-5.483A5.527,5.527,0,0,0-29.834,514.951Zm5.559-4.473a4.508,4.508,0,0,1,4.532,4.473,4.506,4.506,0,0,1-4.534,4.471,4.507,4.507,0,0,1-4.533-4.471A4.509,4.509,0,0,1-24.275,510.478Z" transform="translate(284.265 -394.895)" fill="#fff"/>
                  <path id="Path_60270" data-name="Path 60270" d="M299.48,795.679a5.483,5.483,0,1,0-5.557-5.483A5.526,5.526,0,0,0,299.48,795.679Zm0-9.956a4.473,4.473,0,1,1-4.533,4.473A4.509,4.509,0,0,1,299.48,785.724Z" transform="translate(-168.276 -779.628)" fill="#fff"/>
                  <path id="Path_60271" data-name="Path 60271" d="M305.395,797.66a1.63,1.63,0,1,0-1.653-1.63A1.64,1.64,0,0,0,305.395,797.66Z" transform="translate(-174.188 -785.461)" fill="#fff"/>
                  <path id="Path_60272" data-name="Path 60272" d="M42.484,619.619a1.63,1.63,0,1,0,1.651,1.63A1.637,1.637,0,0,0,42.484,619.619Z" transform="translate(193.301 -541.155)" fill="#fff"/>
                  <path id="Path_60273" data-name="Path 60273" d="M165.427,725.989a1.652,1.652,0,0,0,.743-.182l14.858,14.657h46.964v-1.01H208.658l-8.516-8.4H184.824v1.011h14.893l7.491,7.392H181.453l-14.558-14.362a1.6,1.6,0,0,0,.185-.735,1.653,1.653,0,1,0-1.652,1.631Z" transform="translate(-39.46 -699.756)" fill="#fff"/>
                  <path id="Path_60274" data-name="Path 60274" d="M-13.613,462.731a1.655,1.655,0,0,0-.689.153l-19.837-19.57-.723.717,19.811,19.542a1.593,1.593,0,0,0-.214.788,1.641,1.641,0,0,0,1.652,1.63,1.64,1.64,0,0,0,1.651-1.63A1.639,1.639,0,0,0-13.613,462.731Z" transform="translate(279.51 -314.137)" fill="#fff"/>
                  <path id="Path_60275" data-name="Path 60275" d="M44.676,270.518V252.532L31.572,239.6V212.284l-13.208-13.03-.724.714L30.548,212.7v67.022l-8.472,4.827v10.235l8.472,4.825v45.505h1.024v-45.5l2.7-1.535v25.943a1.652,1.652,0,1,0,1.023,0V297.494l4.754-2.707,0-10.235-8.472-4.827V241.033L43.653,252.95v17.606a1.654,1.654,0,1,0,1.023-.038ZM39.022,294.2l-4.533,2.581h-.221v.126l-3.208,1.827L23.1,294.2v-9.069l7.96-4.535,7.961,4.535Z" transform="translate(200.786 -96.18)" fill="#fff"/>
                  <path id="Path_60276" data-name="Path 60276" d="M66.01,408.269l1.4,2.523,1.514-2.462,1.513-2.46-2.917-.063-2.917-.061Z" transform="translate(157.54 -243.994)" fill="#fff"/>
                  <path id="Path_60277" data-name="Path 60277" d="M435.513,719.536l2.5,1.492,2.492,1.493.064-2.877.064-2.876-2.558,1.384Z" transform="translate(-360.188 -679.441)" fill="#fff"/>
                  <path id="Path_60278" data-name="Path 60278" d="M229.559,581.057l2.5,1.492,2.495,1.494.063-2.878.063-2.877-2.558,1.384Z" transform="translate(-72.31 -485.879)" fill="#fff"/>
                  <path id="Path_60279" data-name="Path 60279" d="M-12.713,586.481l-.062,2.878-.064,2.877,2.558-1.386,2.558-1.383-2.495-1.493Z" transform="translate(266.51 -497.332)" fill="#fff"/>
                  <path id="Path_60280" data-name="Path 60280" d="M146.965,640.13l1.515-2.461,1.513-2.463-2.918-.061-2.918-.063,1.4,2.523Z" transform="translate(46.343 -564.557)" fill="#fff"/>
                  <path id="Path_60281" data-name="Path 60281" d="M129.175,351.625l1.4,2.524,1.4,2.523,1.514-2.46,1.513-2.462-2.917-.061Z" transform="translate(67.286 -168.346)" fill="#fff"/>
                  <path id="Path_60282" data-name="Path 60282" d="M47.553,186.566l1.4,2.523,1.4,2.523,1.513-2.462,1.514-2.462-2.917-.062Z" transform="translate(181.376 62.37)" fill="#fff"/>
                  <path id="Path_60283" data-name="Path 60283" d="M68.926,425.635l1.514-2.461-2.917-.062-2.917-.063,1.4,2.522,1.4,2.525Z" transform="translate(157.54 -268.182)" fill="#fff"/>
                  <path id="Path_60284" data-name="Path 60284" d="M39.425,324.537v7.006l6.151,3.5,6.15-3.5v-7.006l-6.151-3.5Zm11.892,6.773-5.742,3.271-5.742-3.271,0-6.54,5.741-3.27,5.742,3.27Z" transform="translate(186.27 -134.553)" fill="#fff"/>
                  <path id="Path_60285" data-name="Path 60285" d="M182.568,605.513l-.1.057v11.622l10.2,5.812,10.1-5.753.1-.058V605.571l-10.2-5.81ZM202.46,616.96l-9.793,5.577-9.793-5.577V605.8l9.793-5.578,9.793,5.579Z" transform="translate(-21.772 -533.381)" fill="#fff"/>
                  <path id="Path_60286" data-name="Path 60286" d="M128.2,783.553v-4.237l-3.718-2.118-3.719,2.118v4.237l3.718,2.117Z" transform="translate(77.436 -766.629)" fill="#fff"/>
                  <path id="Path_60287" data-name="Path 60287" d="M191.3,548.239V550.9l2.34,1.334,2.339-1.334v-2.664l-2.339-1.333Z" transform="translate(-18.398 -441.591)" fill="#fff"/>
                  <path id="Path_60288" data-name="Path 60288" d="M384.545,680.587v3.648l3.2,1.825,3.2-1.824v-3.648l-3.2-1.823Z" transform="translate(-290.235 -627.864)" fill="#fff"/>
                  <path id="Path_60289" data-name="Path 60289" d="M78.975,599.444l6.56,3.735,6.558-3.735v-7.472l-6.558-3.735-6.56,3.735Zm.41-7.239,6.15-3.5,6.149,3.5v7l-6.149,3.5-6.15-3.5Z" transform="translate(130.172 -508.974)" fill="#fff"/>
                  <path id="Path_60290" data-name="Path 60290" d="M133.5,440.919v46.205a1.652,1.652,0,1,0,1.023,0v-46.2Z" transform="translate(65.37 -337.489)" fill="#fff"/>
                  <path id="Path_60291" data-name="Path 60291" d="M496.77,733.5l2.245,1.28,2.243,1.277v-5.113l-2.243,1.277Z" transform="translate(-445.185 -698.613)" fill="#fff"/>
                  <path id="Path_60292" data-name="Path 60292" d="M-24.167,470.144l39.379,38.847a1.6,1.6,0,0,0-.256.863A1.659,1.659,0,1,0,16,508.342l-29.758-29.356h10.3L4.1,486.439l.724-.715-7.855-7.747H-14.78l-8.662-8.544Z" transform="translate(245.033 -370.02)" fill="#fff"/>
                  <path id="Path_60293" data-name="Path 60293" d="M189.373,745.932l.063-2.878-2.557,1.387-2.558,1.384,2.495,1.494,2.495,1.491Z" transform="translate(-9.077 -716.187)" fill="#fff"/>
                  <path id="Path_60294" data-name="Path 60294" d="M171.83,745.931l.063-2.878-2.559,1.386-2.557,1.385,2.495,1.493,2.494,1.492Z" transform="translate(15.446 -716.187)" fill="#fff"/>
                  <path id="Path_60295" data-name="Path 60295" d="M46.066,814.68l-1.394-2.542L43.278,809.6l-1.5,2.478-1.5,2.481,2.9.061Z" transform="translate(191.594 -808.527)" fill="#fff"/>
                  <path id="Path_60296" data-name="Path 60296" d="M46.066,797.25l-1.394-2.542-1.393-2.542-1.5,2.479-1.5,2.479,2.9.064Z" transform="translate(191.593 -784.163)" fill="#fff"/>
                  <path id="Path_60297" data-name="Path 60297" d="M488.809,725.141a2.5,2.5,0,0,0,4.872,0h28.556l-3.043,3H504.3a1.624,1.624,0,1,0,0,1.01h15.315l4.069-4.013h10.447l13.883,7.905V716.223l-13.887,7.908H493.681a2.5,2.5,0,0,0-4.872,0h-.053v1.009Zm58.183-7.166V731.3l-11.7-6.664Z" transform="translate(-488.756 -689.751)" fill="#fff"/>
                  <path id="Path_60298" data-name="Path 60298" d="M461.3,764.25l.8-.637-8.659-10.52-31.537,0V754.1h31.048Z" transform="translate(-376.242 -735.621)" fill="#fff"/>
                  <path id="Path_60299" data-name="Path 60299" d="M-35.569,614.909a5.535,5.535,0,0,0-5.532-4.977,5.527,5.527,0,0,0-5.559,5.482A5.527,5.527,0,0,0-41.1,620.9a5.536,5.536,0,0,0,5.532-4.978H-7.848a1.644,1.644,0,0,0,1.55,1.089,1.641,1.641,0,0,0,1.652-1.631,1.641,1.641,0,0,0-1.652-1.63,1.644,1.644,0,0,0-1.574,1.162Zm-5.532,4.977a4.509,4.509,0,0,1-4.534-4.473,4.509,4.509,0,0,1,4.534-4.473,4.511,4.511,0,0,1,4.534,4.474A4.51,4.51,0,0,1-41.1,619.887Z" transform="translate(276.886 -535.321)" fill="#fff"/>
                  <path id="Path_60300" data-name="Path 60300" d="M103.968,483.791v4.235l3.718,2.119,3.718-2.119v-4.235l-3.719-2.117Z" transform="translate(100.918 -353.55)" fill="#fff"/>
                  <path id="Path_60301" data-name="Path 60301" d="M405.018,774.67l3.718-2.118v-4.236l-3.718-2.118-3.718,2.119v4.235Z" transform="translate(-314.686 -751.254)" fill="#fff"/>
                  <path id="Path_60302" data-name="Path 60302" d="M336.835,689.758V670.322l-17.062,9.717Zm-1.025-9.717v7.967l-13.988-7.968,13.988-7.968Z" transform="translate(-210.356 -628.203)" fill="#fff"/>
                  <path id="Path_60303" data-name="Path 60303" d="M123.6,410.835l8.528-14.571H115.07Zm0-2.022-6.754-11.539h13.507Z" transform="translate(75.781 -240.265)" fill="#fff"/>
                </g>
                <path id="Path_60304" data-name="Path 60304" d="M365.18,738.933a4,4,0,1,1,4,3.944A3.971,3.971,0,0,1,365.18,738.933Z" transform="translate(-264.76 -707.047)" fill="#fff"/>
                <path id="Path_60305" data-name="Path 60305" d="M77.923,701.634a6.978,6.978,0,1,1,6.978,6.884A6.932,6.932,0,0,1,77.923,701.634Z" transform="translate(130.805 -656.681)" fill="#fff"/>
                <path id="Path_60306" data-name="Path 60306" d="M47.554,331.953l2.918-1.66,2.917,1.66v3.324l-2.917,1.662-2.918-1.662Z" transform="translate(181.375 -140.128)" fill="#fff"/>
                <path id="Path_60307" data-name="Path 60307" d="M193.427,615.57l5.843-3.328,5.843,3.328v6.657l-5.843,3.328-5.843-3.328Z" transform="translate(-28.374 -540.898)" fill="#fff"/>
                <path id="Path_60308" data-name="Path 60308" d="M88.266,600.454l2.864-1.63,2.862,1.63v3.259l-2.862,1.63-2.863-1.63Z" transform="translate(124.577 -515.349)" fill="#fff"/>
                <path id="Path_60309" data-name="Path 60309" d="M328.95,690.21l2.633-1.5,2.633-1.5v6l-2.633-1.5Z" transform="translate(-211.387 -638.374)" fill="#fff"/>
                <path id="Path_60310" data-name="Path 60310" d="M132.583,418.287l-1.3-2.214-1.3-2.216h5.185l-1.3,2.215Z" transform="translate(66.795 -254.715)" fill="#fff"/>
              </g>
            </g>
          </g>
        </g>
      </g>
    </g>
  </g>
</svg>
