<svg id="Component_229_1" data-name="Component 229 – 1" xmlns="http://www.w3.org/2000/svg" width="60.536" height="60.449" viewBox="0 0 60.536 60.449">
  <g id="Group_44882" data-name="Group 44882">
    <g id="Group_44879" data-name="Group 44879" transform="translate(0 14.552)">
      <path id="Path_45401" data-name="Path 45401" d="M193.448,429.543a1.337,1.337,0,1,1-1.533,1.322A1.439,1.439,0,0,1,193.448,429.543Z" transform="translate(-191.915 -429.543)" fill="#bac5ff"/>
      <path id="Path_45402" data-name="Path 45402" d="M203.976,429.543a1.337,1.337,0,1,1-1.533,1.322A1.439,1.439,0,0,1,203.976,429.543Z" transform="translate(-192.865 -429.543)" fill="#bac5ff"/>
      <path id="Path_45403" data-name="Path 45403" d="M214.5,429.543a1.337,1.337,0,1,1-1.532,1.322A1.439,1.439,0,0,1,214.5,429.543Z" transform="translate(-193.815 -429.543)" fill="#bac5ff"/>
      <path id="Path_45404" data-name="Path 45404" d="M225.033,429.543a1.337,1.337,0,1,1-1.533,1.322A1.439,1.439,0,0,1,225.033,429.543Z" transform="translate(-194.765 -429.543)" fill="#bac5ff"/>
      <path id="Path_45405" data-name="Path 45405" d="M235.561,429.543a1.337,1.337,0,1,1-1.532,1.322A1.44,1.44,0,0,1,235.561,429.543Z" transform="translate(-195.715 -429.543)" fill="#bac5ff"/>
      <path id="Path_45406" data-name="Path 45406" d="M246.089,429.543a1.337,1.337,0,1,1-1.532,1.322A1.439,1.439,0,0,1,246.089,429.543Z" transform="translate(-196.665 -429.543)" fill="#bac5ff"/>
      <path id="Path_45407" data-name="Path 45407" d="M256.618,429.543a1.337,1.337,0,1,1-1.533,1.322A1.439,1.439,0,0,1,256.618,429.543Z" transform="translate(-197.614 -429.543)" fill="#bac5ff"/>
    </g>
    <g id="Group_44880" data-name="Group 44880" transform="translate(0 7.276)">
      <path id="Path_45408" data-name="Path 45408" d="M193.448,420.278a1.337,1.337,0,1,1-1.533,1.322A1.439,1.439,0,0,1,193.448,420.278Z" transform="translate(-191.915 -420.278)" fill="#bac5ff"/>
      <path id="Path_45409" data-name="Path 45409" d="M203.976,420.278a1.337,1.337,0,1,1-1.533,1.322A1.439,1.439,0,0,1,203.976,420.278Z" transform="translate(-192.865 -420.278)" fill="#bac5ff"/>
      <path id="Path_45410" data-name="Path 45410" d="M214.5,420.278a1.337,1.337,0,1,1-1.532,1.322A1.439,1.439,0,0,1,214.5,420.278Z" transform="translate(-193.815 -420.278)" fill="#bac5ff"/>
      <path id="Path_45411" data-name="Path 45411" d="M225.033,420.278A1.337,1.337,0,1,1,223.5,421.6,1.439,1.439,0,0,1,225.033,420.278Z" transform="translate(-194.765 -420.278)" fill="#bac5ff"/>
      <path id="Path_45412" data-name="Path 45412" d="M235.561,420.278a1.337,1.337,0,1,1-1.532,1.322A1.44,1.44,0,0,1,235.561,420.278Z" transform="translate(-195.715 -420.278)" fill="#bac5ff"/>
      <path id="Path_45413" data-name="Path 45413" d="M246.089,420.278a1.337,1.337,0,1,1-1.532,1.322A1.439,1.439,0,0,1,246.089,420.278Z" transform="translate(-196.665 -420.278)" fill="#bac5ff"/>
      <path id="Path_45414" data-name="Path 45414" d="M256.618,420.278a1.337,1.337,0,1,1-1.533,1.322A1.439,1.439,0,0,1,256.618,420.278Z" transform="translate(-197.614 -420.278)" fill="#bac5ff"/>
    </g>
    <g id="Group_44881" data-name="Group 44881">
      <path id="Path_45415" data-name="Path 45415" d="M193.448,411.013a1.337,1.337,0,1,1-1.533,1.322A1.439,1.439,0,0,1,193.448,411.013Z" transform="translate(-191.915 -411.013)" fill="#bac5ff"/>
      <path id="Path_45416" data-name="Path 45416" d="M203.976,411.013a1.337,1.337,0,1,1-1.533,1.322A1.439,1.439,0,0,1,203.976,411.013Z" transform="translate(-192.865 -411.013)" fill="#bac5ff"/>
      <path id="Path_45417" data-name="Path 45417" d="M214.5,411.013a1.337,1.337,0,1,1-1.532,1.322A1.439,1.439,0,0,1,214.5,411.013Z" transform="translate(-193.815 -411.013)" fill="#bac5ff"/>
      <path id="Path_45418" data-name="Path 45418" d="M225.033,411.013a1.337,1.337,0,1,1-1.533,1.322A1.439,1.439,0,0,1,225.033,411.013Z" transform="translate(-194.765 -411.013)" fill="#bac5ff"/>
      <path id="Path_45419" data-name="Path 45419" d="M235.561,411.013a1.337,1.337,0,1,1-1.532,1.322A1.44,1.44,0,0,1,235.561,411.013Z" transform="translate(-195.715 -411.013)" fill="#bac5ff"/>
      <path id="Path_45420" data-name="Path 45420" d="M246.089,411.013a1.337,1.337,0,1,1-1.532,1.322A1.439,1.439,0,0,1,246.089,411.013Z" transform="translate(-196.665 -411.013)" fill="#bac5ff"/>
      <path id="Path_45421" data-name="Path 45421" d="M256.618,411.013a1.337,1.337,0,1,1-1.533,1.322A1.439,1.439,0,0,1,256.618,411.013Z" transform="translate(-197.614 -411.013)" fill="#bac5ff"/>
    </g>
  </g>
  <g id="Group_44886" data-name="Group 44886" transform="translate(0 21.625)">
    <g id="Group_44883" data-name="Group 44883" transform="translate(0 14.552)">
      <path id="Path_45422" data-name="Path 45422" d="M193.448,457.08a1.337,1.337,0,1,1-1.533,1.323A1.439,1.439,0,0,1,193.448,457.08Z" transform="translate(-191.915 -457.08)" fill="#bac5ff"/>
      <path id="Path_45423" data-name="Path 45423" d="M203.976,457.08a1.337,1.337,0,1,1-1.533,1.323A1.439,1.439,0,0,1,203.976,457.08Z" transform="translate(-192.865 -457.08)" fill="#bac5ff"/>
      <path id="Path_45424" data-name="Path 45424" d="M214.5,457.08a1.337,1.337,0,1,1-1.532,1.323A1.439,1.439,0,0,1,214.5,457.08Z" transform="translate(-193.815 -457.08)" fill="#bac5ff"/>
      <path id="Path_45425" data-name="Path 45425" d="M225.033,457.08A1.337,1.337,0,1,1,223.5,458.4,1.439,1.439,0,0,1,225.033,457.08Z" transform="translate(-194.765 -457.08)" fill="#bac5ff"/>
      <path id="Path_45426" data-name="Path 45426" d="M235.561,457.08a1.337,1.337,0,1,1-1.532,1.323A1.44,1.44,0,0,1,235.561,457.08Z" transform="translate(-195.715 -457.08)" fill="#bac5ff"/>
      <path id="Path_45427" data-name="Path 45427" d="M246.089,457.08a1.337,1.337,0,1,1-1.532,1.323A1.439,1.439,0,0,1,246.089,457.08Z" transform="translate(-196.665 -457.08)" fill="#bac5ff"/>
      <path id="Path_45428" data-name="Path 45428" d="M256.618,457.08a1.337,1.337,0,1,1-1.533,1.323A1.439,1.439,0,0,1,256.618,457.08Z" transform="translate(-197.614 -457.08)" fill="#bac5ff"/>
    </g>
    <g id="Group_44884" data-name="Group 44884" transform="translate(0 7.276)">
      <path id="Path_45429" data-name="Path 45429" d="M193.448,447.815a1.337,1.337,0,1,1-1.533,1.323A1.439,1.439,0,0,1,193.448,447.815Z" transform="translate(-191.915 -447.815)" fill="#bac5ff"/>
      <path id="Path_45430" data-name="Path 45430" d="M203.976,447.815a1.337,1.337,0,1,1-1.533,1.323A1.439,1.439,0,0,1,203.976,447.815Z" transform="translate(-192.865 -447.815)" fill="#bac5ff"/>
      <path id="Path_45431" data-name="Path 45431" d="M214.5,447.815a1.337,1.337,0,1,1-1.532,1.323A1.439,1.439,0,0,1,214.5,447.815Z" transform="translate(-193.815 -447.815)" fill="#bac5ff"/>
      <path id="Path_45432" data-name="Path 45432" d="M225.033,447.815a1.337,1.337,0,1,1-1.533,1.323A1.439,1.439,0,0,1,225.033,447.815Z" transform="translate(-194.765 -447.815)" fill="#bac5ff"/>
      <path id="Path_45433" data-name="Path 45433" d="M235.561,447.815a1.337,1.337,0,1,1-1.532,1.323A1.44,1.44,0,0,1,235.561,447.815Z" transform="translate(-195.715 -447.815)" fill="#bac5ff"/>
      <path id="Path_45434" data-name="Path 45434" d="M246.089,447.815a1.337,1.337,0,1,1-1.532,1.323A1.439,1.439,0,0,1,246.089,447.815Z" transform="translate(-196.665 -447.815)" fill="#bac5ff"/>
      <path id="Path_45435" data-name="Path 45435" d="M256.618,447.815a1.337,1.337,0,1,1-1.533,1.323A1.439,1.439,0,0,1,256.618,447.815Z" transform="translate(-197.614 -447.815)" fill="#bac5ff"/>
    </g>
    <g id="Group_44885" data-name="Group 44885">
      <path id="Path_45436" data-name="Path 45436" d="M193.448,438.55a1.337,1.337,0,1,1-1.533,1.323A1.439,1.439,0,0,1,193.448,438.55Z" transform="translate(-191.915 -438.55)" fill="#bac5ff"/>
      <path id="Path_45437" data-name="Path 45437" d="M203.976,438.55a1.337,1.337,0,1,1-1.533,1.323A1.439,1.439,0,0,1,203.976,438.55Z" transform="translate(-192.865 -438.55)" fill="#bac5ff"/>
      <path id="Path_45438" data-name="Path 45438" d="M214.5,438.55a1.337,1.337,0,1,1-1.532,1.323A1.439,1.439,0,0,1,214.5,438.55Z" transform="translate(-193.815 -438.55)" fill="#bac5ff"/>
      <path id="Path_45439" data-name="Path 45439" d="M225.033,438.55a1.337,1.337,0,1,1-1.533,1.323A1.439,1.439,0,0,1,225.033,438.55Z" transform="translate(-194.765 -438.55)" fill="#bac5ff"/>
      <path id="Path_45440" data-name="Path 45440" d="M235.561,438.55a1.337,1.337,0,1,1-1.532,1.323A1.44,1.44,0,0,1,235.561,438.55Z" transform="translate(-195.715 -438.55)" fill="#bac5ff"/>
      <path id="Path_45441" data-name="Path 45441" d="M246.089,438.55a1.337,1.337,0,1,1-1.532,1.323A1.439,1.439,0,0,1,246.089,438.55Z" transform="translate(-196.665 -438.55)" fill="#bac5ff"/>
      <path id="Path_45442" data-name="Path 45442" d="M256.618,438.55a1.337,1.337,0,1,1-1.533,1.323A1.439,1.439,0,0,1,256.618,438.55Z" transform="translate(-197.614 -438.55)" fill="#bac5ff"/>
    </g>
  </g>
  <g id="Group_44890" data-name="Group 44890" transform="translate(0 43.25)">
    <g id="Group_44887" data-name="Group 44887" transform="translate(0 14.552)">
      <path id="Path_45443" data-name="Path 45443" d="M193.448,484.617a1.338,1.338,0,1,1-1.533,1.323A1.44,1.44,0,0,1,193.448,484.617Z" transform="translate(-191.915 -484.617)" fill="#bac5ff"/>
      <path id="Path_45444" data-name="Path 45444" d="M203.976,484.617a1.338,1.338,0,1,1-1.533,1.323A1.44,1.44,0,0,1,203.976,484.617Z" transform="translate(-192.865 -484.617)" fill="#bac5ff"/>
      <path id="Path_45445" data-name="Path 45445" d="M214.5,484.617a1.337,1.337,0,1,1-1.532,1.323A1.44,1.44,0,0,1,214.5,484.617Z" transform="translate(-193.815 -484.617)" fill="#bac5ff"/>
      <path id="Path_45446" data-name="Path 45446" d="M225.033,484.617a1.338,1.338,0,1,1-1.533,1.323A1.44,1.44,0,0,1,225.033,484.617Z" transform="translate(-194.765 -484.617)" fill="#bac5ff"/>
      <path id="Path_45447" data-name="Path 45447" d="M235.561,484.617a1.337,1.337,0,1,1-1.532,1.323A1.44,1.44,0,0,1,235.561,484.617Z" transform="translate(-195.715 -484.617)" fill="#bac5ff"/>
      <path id="Path_45448" data-name="Path 45448" d="M246.089,484.617a1.337,1.337,0,1,1-1.532,1.323A1.44,1.44,0,0,1,246.089,484.617Z" transform="translate(-196.665 -484.617)" fill="#bac5ff"/>
      <path id="Path_45449" data-name="Path 45449" d="M256.618,484.617a1.338,1.338,0,1,1-1.533,1.323A1.44,1.44,0,0,1,256.618,484.617Z" transform="translate(-197.614 -484.617)" fill="#bac5ff"/>
    </g>
    <g id="Group_44888" data-name="Group 44888" transform="translate(0 7.276)">
      <path id="Path_45450" data-name="Path 45450" d="M193.448,475.352a1.337,1.337,0,1,1-1.533,1.323A1.44,1.44,0,0,1,193.448,475.352Z" transform="translate(-191.915 -475.352)" fill="#bac5ff"/>
      <path id="Path_45451" data-name="Path 45451" d="M203.976,475.352a1.337,1.337,0,1,1-1.533,1.323A1.44,1.44,0,0,1,203.976,475.352Z" transform="translate(-192.865 -475.352)" fill="#bac5ff"/>
      <path id="Path_45452" data-name="Path 45452" d="M214.5,475.352a1.337,1.337,0,1,1-1.532,1.323A1.44,1.44,0,0,1,214.5,475.352Z" transform="translate(-193.815 -475.352)" fill="#bac5ff"/>
      <path id="Path_45453" data-name="Path 45453" d="M225.033,475.352a1.337,1.337,0,1,1-1.533,1.323A1.44,1.44,0,0,1,225.033,475.352Z" transform="translate(-194.765 -475.352)" fill="#bac5ff"/>
      <path id="Path_45454" data-name="Path 45454" d="M235.561,475.352a1.337,1.337,0,1,1-1.532,1.323A1.44,1.44,0,0,1,235.561,475.352Z" transform="translate(-195.715 -475.352)" fill="#bac5ff"/>
      <path id="Path_45455" data-name="Path 45455" d="M246.089,475.352a1.337,1.337,0,1,1-1.532,1.323A1.44,1.44,0,0,1,246.089,475.352Z" transform="translate(-196.665 -475.352)" fill="#bac5ff"/>
      <path id="Path_45456" data-name="Path 45456" d="M256.618,475.352a1.337,1.337,0,1,1-1.533,1.323A1.44,1.44,0,0,1,256.618,475.352Z" transform="translate(-197.614 -475.352)" fill="#bac5ff"/>
    </g>
    <g id="Group_44889" data-name="Group 44889">
      <path id="Path_45457" data-name="Path 45457" d="M193.448,466.087a1.338,1.338,0,1,1-1.533,1.323A1.44,1.44,0,0,1,193.448,466.087Z" transform="translate(-191.915 -466.087)" fill="#bac5ff"/>
      <path id="Path_45458" data-name="Path 45458" d="M203.976,466.087a1.338,1.338,0,1,1-1.533,1.323A1.44,1.44,0,0,1,203.976,466.087Z" transform="translate(-192.865 -466.087)" fill="#bac5ff"/>
      <path id="Path_45459" data-name="Path 45459" d="M214.5,466.087a1.337,1.337,0,1,1-1.532,1.323A1.44,1.44,0,0,1,214.5,466.087Z" transform="translate(-193.815 -466.087)" fill="#bac5ff"/>
      <path id="Path_45460" data-name="Path 45460" d="M225.033,466.087a1.338,1.338,0,1,1-1.533,1.323A1.44,1.44,0,0,1,225.033,466.087Z" transform="translate(-194.765 -466.087)" fill="#bac5ff"/>
      <path id="Path_45461" data-name="Path 45461" d="M235.561,466.087a1.337,1.337,0,1,1-1.532,1.323A1.44,1.44,0,0,1,235.561,466.087Z" transform="translate(-195.715 -466.087)" fill="#bac5ff"/>
      <path id="Path_45462" data-name="Path 45462" d="M246.089,466.087a1.337,1.337,0,1,1-1.532,1.323A1.44,1.44,0,0,1,246.089,466.087Z" transform="translate(-196.665 -466.087)" fill="#bac5ff"/>
      <path id="Path_45463" data-name="Path 45463" d="M256.618,466.087a1.338,1.338,0,1,1-1.533,1.323A1.44,1.44,0,0,1,256.618,466.087Z" transform="translate(-197.614 -466.087)" fill="#bac5ff"/>
    </g>
  </g>
</svg>
