<svg id="Component_230_1" data-name="Component 230 – 1" xmlns="http://www.w3.org/2000/svg" xmlns:xlink="http://www.w3.org/1999/xlink" width="564" height="1018" viewBox="0 0 564 1018">
  <defs>
    <clipPath id="clip-path">
      <rect id="Rectangle_10639" data-name="Rectangle 10639" width="564" height="1018" transform="translate(0 0)" fill="#fff"/>
    </clipPath>
    <linearGradient id="linear-gradient" x1="0.73" y1="0.467" x2="0.5" y2="1" gradientUnits="objectBoundingBox">
      <stop offset="0" stop-color="#1587c3"/>
      <stop offset="1" stop-color="#1f568c"/>
    </linearGradient>
    <clipPath id="clip-path-2">
      <rect id="Rectangle_10830" data-name="Rectangle 10830" width="318.321" height="318.321" fill="#fff"/>
    </clipPath>
    <clipPath id="clip-path-3">
      <rect id="Rectangle_10831" data-name="Rectangle 10831" width="318.615" height="318.615" fill="#fff"/>
    </clipPath>
  </defs>
  <g id="Mask_Group_149" data-name="Mask Group 149" transform="translate(0 0)" clip-path="url(#clip-path)">
    <path id="Path_59124" data-name="Path 59124" d="M49.587,0H709.926a49.587,49.587,0,0,1,49.587,49.587v837.2a49.587,49.587,0,0,1-49.587,49.587H49.587A49.587,49.587,0,0,1,0,886.788V49.587A49.587,49.587,0,0,1,49.587,0Z" transform="translate(-683.601 409.052) rotate(-49)" fill="url(#linear-gradient)"/>
    <g id="Group_53666" data-name="Group 53666" transform="translate(24.573 400.514)">
      <path id="Path_59125" data-name="Path 59125" d="M78.59,161.263c44.522-.986,81.533-37.88,82.666-82.406S127.215-.966,82.693.02,1.159,37.9.027,82.426,34.068,162.248,78.59,161.263Z" transform="translate(159.115 5.85) rotate(80.595)" fill="none" stroke="#fff" stroke-linecap="round" stroke-width="2" stroke-dasharray="0 5" opacity="0.32"/>
      <ellipse id="Ellipse_2319" data-name="Ellipse 2319" cx="8.064" cy="8.064" rx="8.064" ry="8.064" transform="translate(4.887 103.247)" fill="#fff" opacity="0.88"/>
      <ellipse id="Ellipse_2320" data-name="Ellipse 2320" cx="16.128" cy="16.128" rx="16.128" ry="16.128" transform="translate(49.258 155.476)" fill="#f9fbfc"/>
      <circle id="Ellipse_2321" data-name="Ellipse 2321" cx="29.254" cy="29.254" r="29.254" transform="translate(34.228 0)" fill="#f2f5f8"/>
    </g>
    <g id="Group_54500" data-name="Group 54500" transform="matrix(0.731, 0.682, -0.682, 0.731, 239.837, 241.103)" opacity="0.31" style="mix-blend-mode: normal;isolation: isolate">
      <g id="Group_54471" data-name="Group 54471" transform="translate(24.416 31.198)">
        <path id="Path_60199" data-name="Path 60199" d="M0,2.84A2.84,2.84,0,1,1,2.84,5.68,2.84,2.84,0,0,1,0,2.84Z" transform="translate(264.105 250.538)" fill="#fff"/>
        <path id="Path_60200" data-name="Path 60200" d="M0,2.84A2.84,2.84,0,1,1,2.84,5.68,2.84,2.84,0,0,1,0,2.84Z" transform="translate(0 0)" fill="#fff"/>
      </g>
      <g id="Group_54485" data-name="Group 54485" transform="translate(0 0.066)">
        <g id="Group_54484" data-name="Group 54484" clip-path="url(#clip-path-3)">
          <g id="Group_54483" data-name="Group 54483" transform="translate(64.625 -9.249)">
            <g id="Group_54482" data-name="Group 54482" transform="translate(0 0)">
              <g id="Group_54481" data-name="Group 54481">
                <path id="Path_60256" data-name="Path 60256" d="M0,1.632A1.643,1.643,0,0,1,1.653,0,1.645,1.645,0,0,1,3.309,1.632,1.643,1.643,0,0,1,1.653,3.261,1.64,1.64,0,0,1,0,1.632Z" transform="translate(258.654 118.571)" fill="#fff"/>
                <g id="Group_54479" data-name="Group 54479" transform="translate(248.463 41.331)">
                  <path id="Path_60257" data-name="Path 60257" d="M7.2,4.167,3.6,6.249,0,8.329V0L3.6,2.081Z" transform="translate(0 0)" fill="#fff"/>
                </g>
                <path id="Path_60258" data-name="Path 60258" d="M0,1.632A1.642,1.642,0,0,1,1.655,0,1.64,1.64,0,0,1,3.307,1.631a1.641,1.641,0,0,1-1.653,1.63A1.642,1.642,0,0,1,0,1.632Z" transform="translate(214.316 4.529)" fill="#fff"/>
                <g id="Group_54480" data-name="Group 54480">
                  <path id="Path_60259" data-name="Path 60259" d="M7.118,14.047A7.08,7.08,0,0,0,14.24,7.025,7.08,7.08,0,0,0,7.12,0,7.081,7.081,0,0,0,0,7.025,7.078,7.078,0,0,0,7.118,14.047ZM7.12.4a6.674,6.674,0,0,1,6.71,6.62,6.672,6.672,0,0,1-6.711,6.619A6.673,6.673,0,0,1,.409,7.025,6.673,6.673,0,0,1,7.12.4Z" transform="translate(97.427 24.901)" fill="#fff"/>
                  <path id="Path_60260" data-name="Path 60260" d="M11.13,5.489A5.534,5.534,0,0,0,5.565,0,5.533,5.533,0,0,0,0,5.489,5.534,5.534,0,0,0,5.564,10.98,5.535,5.535,0,0,0,11.13,5.489Zm-10.1,0a4.54,4.54,0,0,1,9.079,0,4.54,4.54,0,0,1-9.079,0Z" transform="translate(230.509 88.282)" fill="#fff"/>
                  <path id="Path_60261" data-name="Path 60261" d="M2.491,0A2.472,2.472,0,0,0,0,2.459,2.474,2.474,0,0,0,2.491,4.915,2.474,2.474,0,0,0,4.982,2.459,2.472,2.472,0,0,0,2.491,0Z" transform="translate(83.445 37.794)" fill="#fff"/>
                  <path id="Path_60262" data-name="Path 60262" d="M2.493,25.46A2.477,2.477,0,0,0,4.985,23a2.44,2.44,0,0,0-.059-.527H42.344l7.6,8.945H35.791a1.625,1.625,0,1,0,0,1.011H61.807a10.491,10.491,0,0,0,20.941,0H93.965l13.262,13.084h23.31a2.5,2.5,0,0,0,4.877,0h10.752l-9.39,9.264h-28.9a1.63,1.63,0,1,0,0,1.012H137.2l10.416-10.276h8.744a26.568,26.568,0,0,0,4.655,14.531L161,60.031l-9.941,9.807.717.707-12.941-7.37-13.1,7.46V85.556l13.1,7.46,13.1-7.46V70.635l-.147-.084,9.816-9.682a27.423,27.423,0,0,0,21.585,11.1v4.914l-8.483,4.832v3.747l-7.5,7.4V80.373l3.1-3.057-.724-.717-3.4,3.355V93.878l-7.254,7.156v18.073L152.8,125.15a1.623,1.623,0,1,0,.91,1.45,1.6,1.6,0,0,0-.185-.735l6.426-6.34V101.453L174.706,86.9v4.566l-11.933,11.773v29.287H163.8V103.654L175.3,92.3l7.885,4.493v10.444l11.86,11.7v11.173a2.451,2.451,0,0,0,0,4.811v12.307a1.655,1.655,0,1,0,1.026,0V134.927a2.451,2.451,0,0,0,0-4.811V118.522l-11.861-11.7V96.8l8.483-4.834V81.717l-5.617-3.2V68.178a23.8,23.8,0,0,0,12.763-6.029l4.384,4.325h18.439a1.63,1.63,0,1,0,.092-1.012H204.652l-4.071-4.017a23.138,23.138,0,0,0,0-32.872l1.83-1.805a25.7,25.7,0,0,1,7.612,18.241h1.026a26.7,26.7,0,0,0-7.912-18.957l22.706-22.4a1.646,1.646,0,0,0,2.4-1.451,1.654,1.654,0,0,0-3.308,0,1.6,1.6,0,0,0,.185.735L202.4,25.347a27.443,27.443,0,0,0-18.7-7.316v1.012a26.406,26.406,0,0,1,17.97,7.02l-1.83,1.805a23.9,23.9,0,0,0-32.541.245l-8.411-8.3H144.441L126.549,2.164a1.6,1.6,0,0,0,.1-.533,1.654,1.654,0,0,0-3.307,0,1.643,1.643,0,0,0,1.654,1.632,1.666,1.666,0,0,0,.932-.286l17.066,16.837h-4.166L120.96,2.192a1.6,1.6,0,0,0,.107-.562,1.653,1.653,0,0,0-3.306,0,1.656,1.656,0,0,0,2.562,1.363l17.05,16.821H116.493a1.632,1.632,0,1,0,0,1.011h21.9l.076.074.075-.074h5.467l.075.074.075-.074h14.3l8.111,8a23.16,23.16,0,0,0-6.6,16.179,23.585,23.585,0,0,0,23.215,23.4V70.96a26.161,26.161,0,0,1-25.807-25.952V44.5H135.414a2.5,2.5,0,0,0-4.877,0H107.65L94.389,31.419H82.748a10.491,10.491,0,0,0-20.941,0H51.287l-8.466-9.957H4.435a2.5,2.5,0,0,0-1.942-.921,2.459,2.459,0,1,0,0,4.918ZM150.909,84.972l-12.072,6.877-12.073-6.877V71.219l12.072-6.876,12.074,6.876Zm40.763,6.409-7.97,4.539-7.971-4.538V82.3l7.971-4.538,7.97,4.538Zm-5.616-13.448-1.842-1.049V68.405c.62-.013,1.235-.043,1.842-.1ZM184.214,44.8l-13.8-13.614a19.366,19.366,0,0,1,32.613,13.824,19.208,19.208,0,0,1-18.813,19.053Zm-1.024.42V64.061a19.207,19.207,0,0,1-18.811-19.053A18.86,18.86,0,0,1,169.689,31.9ZM183.7,22.61a22.394,22.394,0,1,1,.511,44.785V64.466a19.465,19.465,0,1,0-.512-38.927,19.8,19.8,0,0,0-13.578,5.36l-2.1-2.071A22.784,22.784,0,0,1,183.7,22.61ZM161,45.008a22.159,22.159,0,0,1,6.3-15.465l2.1,2.071a19.258,19.258,0,0,0-5.434,13.394,19.615,19.615,0,0,0,19.223,19.457v2.929A22.568,22.568,0,0,1,161,45.008ZM72.278,22.594a9.332,9.332,0,1,1-9.458,9.332A9.406,9.406,0,0,1,72.278,22.594Z" transform="translate(32.269 0)" fill="#fff"/>
                  <path id="Path_60263" data-name="Path 60263" d="M2.492,4.917A2.476,2.476,0,0,0,4.985,2.459,2.476,2.476,0,0,0,2.492,0,2.476,2.476,0,0,0,0,2.459,2.475,2.475,0,0,0,2.492,4.917Z" transform="translate(206.368 113.196)" fill="#fff"/>
                  <path id="Path_60264" data-name="Path 60264" d="M2.492,4.917A2.476,2.476,0,0,0,4.985,2.459,2.476,2.476,0,0,0,2.492,0,2.477,2.477,0,0,0,0,2.459,2.475,2.475,0,0,0,2.492,4.917Z" transform="translate(206.368 105.655)" fill="#fff"/>
                  <path id="Path_60265" data-name="Path 60265" d="M2.491,0A2.474,2.474,0,0,0,0,2.458,2.476,2.476,0,0,0,2.491,4.917,2.476,2.476,0,0,0,4.984,2.458,2.475,2.475,0,0,0,2.491,0Z" transform="translate(149.974 79.503)" fill="#fff"/>
                  <path id="Path_60266" data-name="Path 60266" d="M2.49,4.915A2.475,2.475,0,0,0,4.983,2.456,2.473,2.473,0,0,0,2.491,0,2.471,2.471,0,0,0,0,2.457,2.474,2.474,0,0,0,2.49,4.915Z" transform="translate(149.975 71.964)" fill="#fff"/>
                  <path id="Path_60267" data-name="Path 60267" d="M3.308,1.63A1.641,1.641,0,0,0,1.654,0,1.642,1.642,0,0,0,0,1.63,1.643,1.643,0,0,0,1.654,3.262,1.642,1.642,0,0,0,3.308,1.63Z" transform="translate(234.42 92.14)" fill="#fff"/>
                  <path id="Path_60268" data-name="Path 60268" d="M5.565,10.982a5.533,5.533,0,0,0,5.563-5.49A5.534,5.534,0,0,0,5.565,0,5.536,5.536,0,0,0,0,5.492,5.536,5.536,0,0,0,5.565,10.982Zm0-9.969A4.514,4.514,0,0,1,10.1,5.493a4.54,4.54,0,0,1-9.079,0A4.515,4.515,0,0,1,5.565,1.013Z" transform="translate(210.405 0.669)" fill="#fff"/>
                  <path id="Path_60269" data-name="Path 60269" d="M0,5.49a5.533,5.533,0,0,0,5.565,5.49A5.534,5.534,0,0,0,11.13,5.49,5.533,5.533,0,0,0,5.565,0,5.534,5.534,0,0,0,0,5.49ZM5.566,1.011A4.514,4.514,0,0,1,10.1,5.49a4.539,4.539,0,0,1-9.077,0A4.515,4.515,0,0,1,5.566,1.011Z" transform="translate(254.743 114.713)" fill="#fff"/>
                  <path id="Path_60270" data-name="Path 60270" d="M5.563,10.979a5.532,5.532,0,0,0,5.565-5.489A5.533,5.533,0,0,0,5.563,0,5.532,5.532,0,0,0,0,5.489,5.533,5.533,0,0,0,5.563,10.979Zm0-9.968A4.515,4.515,0,0,1,10.1,5.489a4.539,4.539,0,0,1-9.078,0A4.514,4.514,0,0,1,5.563,1.011Z" transform="translate(125.801 5.092)" fill="#fff"/>
                  <path id="Path_60271" data-name="Path 60271" d="M1.655,3.264A1.642,1.642,0,0,0,3.307,1.632,1.644,1.644,0,0,0,1.652,0,1.643,1.643,0,0,0,0,1.632,1.643,1.643,0,0,0,1.655,3.264Z" transform="translate(129.712 8.949)" fill="#fff"/>
                  <path id="Path_60272" data-name="Path 60272" d="M1.652,0A1.639,1.639,0,0,0,0,1.632,1.642,1.642,0,0,0,1.652,3.263,1.643,1.643,0,0,0,3.306,1.632,1.642,1.642,0,0,0,1.652,0Z" transform="translate(234.422 78.56)" fill="#fff"/>
                  <path id="Path_60273" data-name="Path 60273" d="M1.655,3.264A1.654,1.654,0,0,0,2.4,3.082L17.276,17.757H64.3V16.745H44.939L36.413,8.333H21.076V9.345H35.987l7.5,7.4H17.7L3.124,2.366a1.6,1.6,0,0,0,.185-.736A1.642,1.642,0,0,0,1.655,0,1.645,1.645,0,0,0,0,1.631,1.644,1.644,0,0,0,1.655,3.264Z" transform="translate(124.466 23.001)" fill="#fff"/>
                  <path id="Path_60274" data-name="Path 60274" d="M21.276,19.441a1.657,1.657,0,0,0-.69.153L.724,0,0,.718,19.835,20.284a1.6,1.6,0,0,0-.214.789,1.654,1.654,0,1,0,1.654-1.632Z" transform="translate(244.946 129.336)" fill="#fff"/>
                  <path id="Path_60275" data-name="Path 60275" d="M27.07,71.352V53.343L13.949,40.4V13.046L.725,0,0,.715l12.924,12.75v67.1L4.441,85.4V95.65l8.483,4.831v45.561h1.025v-45.56l2.7-1.537v25.974a1.654,1.654,0,1,0,1.025,0V98.36l4.76-2.711,0-10.248-8.483-4.833V41.831l12.1,11.931V71.389a1.656,1.656,0,1,0,1.025-.038ZM21.408,95.065,16.87,97.649h-.221v.126L13.437,99.6l-7.97-4.539v-9.08l7.97-4.541,7.971,4.541Z" transform="translate(218.694 103.2)" fill="#fff"/>
                  <path id="Path_60276" data-name="Path 60276" d="M1.406,2.526l1.4,2.527L4.326,2.588,5.841.125,2.921.061,0,0Z" transform="translate(222.419 161.95)" fill="#fff"/>
                  <path id="Path_60277" data-name="Path 60277" d="M0,2.772,2.5,4.266l2.5,1.495L5.058,2.88,5.122,0,2.56,1.385Z" transform="translate(75.417 37.372)" fill="#fff"/>
                  <path id="Path_60278" data-name="Path 60278" d="M0,2.773,2.5,4.267,5,5.763l.063-2.882L5.122,0,2.562,1.386Z" transform="translate(157.442 92.522)" fill="#fff"/>
                  <path id="Path_60279" data-name="Path 60279" d="M.126,0,.064,2.882,0,5.762,2.561,4.375,5.122,2.99l-2.5-1.495Z" transform="translate(253.982 89.259)" fill="#fff"/>
                  <path id="Path_60280" data-name="Path 60280" d="M2.811,5.055,4.327,2.59,5.842.124,2.921.063,0,0,1.406,2.526Z" transform="translate(190.735 70.611)" fill="#fff"/>
                  <path id="Path_60281" data-name="Path 60281" d="M0,0,1.406,2.527,2.811,5.053,4.327,2.59,5.842.125,2.921.064Z" transform="translate(196.702 183.504)" fill="#fff"/>
                  <path id="Path_60282" data-name="Path 60282" d="M0,0,1.406,2.527l1.4,2.526L4.326,2.588,5.842.124,2.921.061Z" transform="translate(229.209 249.242)" fill="#fff"/>
                  <path id="Path_60283" data-name="Path 60283" d="M4.325,2.588,5.841.125,2.921.063,0,0,1.406,2.525l1.4,2.528Z" transform="translate(222.419 155.057)" fill="#fff"/>
                  <path id="Path_60284" data-name="Path 60284" d="M0,3.508v7.015l6.159,3.509,6.158-3.509V3.508L6.159,0Zm11.907,6.781L6.159,13.564.409,10.289l0-6.548L6.159.468l5.749,3.274Z" transform="translate(225.972 186.709)" fill="#fff"/>
                  <path id="Path_60285" data-name="Path 60285" d="M.1,5.759,0,5.816V17.453l10.214,5.819,10.112-5.761.1-.058V5.817L10.214,0ZM20.019,17.221l-9.8,5.583-9.8-5.583V6.051l9.8-5.585,9.8,5.586Z" transform="translate(160.89 66.461)" fill="#fff"/>
                  <path id="Path_60286" data-name="Path 60286" d="M7.445,6.363V2.121L3.723,0,0,2.121V6.363l3.723,2.12Z" transform="translate(198.447 10.582)" fill="#fff"/>
                  <path id="Path_60287" data-name="Path 60287" d="M0,1.334V4L2.343,5.338,4.684,4V1.334L2.343,0Z" transform="translate(173.116 105.445)" fill="#fff"/>
                  <path id="Path_60288" data-name="Path 60288" d="M0,1.825V5.477L3.206,7.3,6.412,5.477V1.825L3.206,0Z" transform="translate(94.426 50.963)" fill="#fff"/>
                  <path id="Path_60289" data-name="Path 60289" d="M0,11.221l6.568,3.74,6.566-3.74V3.74L6.568,0,0,3.74ZM.411,3.974,6.568.467l6.157,3.507v7.012L6.568,14.492.411,10.985Z" transform="translate(209.403 79.361)" fill="#fff"/>
                  <path id="Path_60290" data-name="Path 60290" d="M1.141,0V46.262a1.624,1.624,0,0,0,.513,3.175,1.624,1.624,0,0,0,.512-3.175V0Z" transform="translate(197.97 103.557)" fill="#fff"/>
                  <path id="Path_60291" data-name="Path 60291" d="M0,2.559,2.248,3.841,4.494,5.119V0L2.248,1.279Z" transform="translate(51.648 32.368)" fill="#fff"/>
                  <path id="Path_60292" data-name="Path 60292" d="M0,.714,39.427,39.609a1.6,1.6,0,0,0-.256.864,1.661,1.661,0,1,0,1.048-1.514L10.424,9.567H20.741l7.564,7.462.725-.716L21.166,8.556H9.4L.726,0Z" transform="translate(221.137 99.533)" fill="#fff"/>
                  <path id="Path_60293" data-name="Path 60293" d="M5.059,2.882,5.122,0,2.562,1.389,0,2.775l2.5,1.5L5,5.764Z" transform="translate(175.459 26.899)" fill="#fff"/>
                  <path id="Path_60294" data-name="Path 60294" d="M5.059,2.881,5.123,0,2.561,1.387,0,2.774,2.5,4.269,5,5.763Z" transform="translate(182.445 26.9)" fill="#fff"/>
                  <path id="Path_60295" data-name="Path 60295" d="M5.8,5.09,4.4,2.545,3.008,0,1.5,2.481,0,4.965l2.9.061Z" transform="translate(232.151 1.071)" fill="#fff"/>
                  <path id="Path_60296" data-name="Path 60296" d="M5.8,5.091,4.4,2.545,3.009,0,1.5,2.482,0,4.963l2.9.064Z" transform="translate(232.151 8.013)" fill="#fff"/>
                  <path id="Path_60297" data-name="Path 60297" d="M.053,8.928a2.5,2.5,0,0,0,4.878,0H33.522l-3.047,3.006H15.567a1.626,1.626,0,1,0,0,1.011H30.9L34.974,8.93h10.46l13.9,7.915V0l-13.9,7.918H4.931a2.5,2.5,0,0,0-4.878,0H0v1.01ZM58.307,1.754V15.1L46.6,8.424Z" transform="translate(0 26.504)" fill="#fff"/>
                  <path id="Path_60298" data-name="Path 60298" d="M39.449,11.171l.8-.638L31.576,0,0,0v1.01H31.086Z" transform="translate(45.715 17.493)" fill="#fff"/>
                  <path id="Path_60299" data-name="Path 60299" d="M11.1,4.984A5.542,5.542,0,0,0,5.565,0,5.534,5.534,0,0,0,0,5.489a5.567,5.567,0,0,0,11.1.506H38.858a1.633,1.633,0,1,0-.023-1.011ZM5.565,9.967A4.515,4.515,0,0,1,1.026,5.489a4.54,4.54,0,0,1,9.079,0A4.516,4.516,0,0,1,5.565,9.967Z" transform="translate(230.509 74.702)" fill="#fff"/>
                  <path id="Path_60300" data-name="Path 60300" d="M0,2.12V6.361L3.723,8.482,7.446,6.361V2.12L3.723,0Z" transform="translate(205.137 128.28)" fill="#fff"/>
                  <path id="Path_60301" data-name="Path 60301" d="M3.724,8.482,7.446,6.361V2.12L3.723,0,0,2.121v4.24Z" transform="translate(86.719 14.963)" fill="#fff"/>
                  <path id="Path_60302" data-name="Path 60302" d="M17.083,19.459V0L0,9.729ZM16.057,9.73v7.976L2.052,9.729,16.057,1.752Z" transform="translate(109.551 42.17)" fill="#fff"/>
                  <path id="Path_60303" data-name="Path 60303" d="M8.538,14.589,17.077,0H0Zm0-2.024L1.776,1.011H15.3Z" transform="translate(191.085 156.19)" fill="#fff"/>
                </g>
                <path id="Path_60304" data-name="Path 60304" d="M0,3.949A3.976,3.976,0,0,1,4,0a3.977,3.977,0,0,1,4,3.949A3.978,3.978,0,0,1,4,7.9,3.977,3.977,0,0,1,0,3.949Z" transform="translate(100.543 27.977)" fill="#fff"/>
                <path id="Path_60305" data-name="Path 60305" d="M0,6.891A6.94,6.94,0,0,1,6.986,0a6.938,6.938,0,0,1,6.985,6.891,6.939,6.939,0,0,1-6.985,6.892A6.94,6.94,0,0,1,0,6.891Z" transform="translate(208.984 38.117)" fill="#fff"/>
                <path id="Path_60306" data-name="Path 60306" d="M0,1.662,2.921,0l2.92,1.662V4.99L2.921,6.655,0,4.99Z" transform="translate(229.209 190.398)" fill="#fff"/>
                <path id="Path_60307" data-name="Path 60307" d="M0,3.332,5.85,0,11.7,3.332V10L5.85,13.33,0,10Z" transform="translate(165.255 71.432)" fill="#fff"/>
                <path id="Path_60308" data-name="Path 60308" d="M0,1.632,2.867,0,5.733,1.632V4.9L2.867,6.527,0,4.9Z" transform="translate(213.104 83.578)" fill="#fff"/>
                <path id="Path_60309" data-name="Path 60309" d="M0,3,2.636,1.5,5.273,0V6.007L2.636,4.5Z" transform="translate(117.707 48.896)" fill="#fff"/>
                <path id="Path_60310" data-name="Path 60310" d="M2.595,4.435,1.3,2.218,0,0H5.191l-1.3,2.218Z" transform="translate(197.028 159.337)" fill="#fff"/>
              </g>
            </g>
          </g>
        </g>
      </g>
    </g>
  </g>
</svg>
