<svg id="Component_239_1" data-name="Component 239 – 1" xmlns="http://www.w3.org/2000/svg" width="75.81" height="29.778" viewBox="0 0 75.81 29.778">
  <path id="Path_76396" data-name="Path 76396" d="M155.511,58.013h1.571a6.133,6.133,0,0,0,6.132-5.415H166.6a6.132,6.132,0,0,0,6.092-5.415h2.031a6.133,6.133,0,0,0,6.092-6.132,1.99,1.99,0,0,0-1.99-1.99H157.5a8.014,8.014,0,0,0-.975-1.354,8.9,8.9,0,0,0-12.847.068l-.772.812-.772-.812a8.827,8.827,0,0,0-12.847,0,8.018,8.018,0,0,0-.975,1.354h-3.005a1.354,1.354,0,0,0,0,2.708h1.747a3.284,3.284,0,0,1-.122.6,2.613,2.613,0,0,0-.095.447,11.666,11.666,0,0,0-.135,1.178v.216a9.468,9.468,0,0,0,.068,1.354q.024.2.068.393a8.6,8.6,0,0,0,.2.988,1.486,1.486,0,0,0,.135.461c.054.149.2.582.325.867a4.816,4.816,0,0,0,.2.461h0a7.339,7.339,0,0,0,.474.839l.23.379h0a9.585,9.585,0,0,0,.893,1.1l4.061,4.224h-4.63a3.412,3.412,0,0,1-3.425-2.965,1.355,1.355,0,0,0-.758-2.477h-5.294a3.413,3.413,0,0,1-3.344-2.708h3.98a1.354,1.354,0,0,0,0-2.708h-8.759a3.413,3.413,0,0,1-3.344-2.708h12.1a1.354,1.354,0,0,0,0-2.708h-12.9A1.989,1.989,0,0,0,105,41.05a6.132,6.132,0,0,0,6.132,6.132h1.99a6.132,6.132,0,0,0,6.092,5.415H122.6a6.132,6.132,0,0,0,6.092,5.415h7.148l6.051,6.349a1.355,1.355,0,0,0,1.95,0l6.092-6.349h5.577Zm-12.6,3.452-11.67-12.184a7.039,7.039,0,0,1-.988-8.123,6.488,6.488,0,0,1,1-1.421,6.105,6.105,0,0,1,8.921,0l1.76,1.841a1.353,1.353,0,0,0,1.95,0l1.733-1.936a6.138,6.138,0,0,1,8.948,0,6.516,6.516,0,0,1,1,1.421,7.149,7.149,0,0,1,.88,3.412,6.85,6.85,0,0,1-1.882,4.779Zm13.619-10.383a9.584,9.584,0,0,0,2.627-6.606,9.853,9.853,0,0,0-.095-1.273,3.977,3.977,0,0,0-.081-.419,3.567,3.567,0,0,0-.176-.839.566.566,0,0,1,0-.135h19.223a3.413,3.413,0,0,1-3.344,2.708h-8.759a1.354,1.354,0,1,0,0,2.708h3.98a3.413,3.413,0,0,1-3.344,2.708h-5.334a1.355,1.355,0,0,0-.758,2.477,3.411,3.411,0,0,1-3.384,2.9h-4.576Z" transform="translate(-105.003 -34.999)" fill="#1587c3"/>
</svg>
