<svg id="Component_161_1" data-name="Component 161 – 1" xmlns="http://www.w3.org/2000/svg" width="164.355" height="44.252" viewBox="0 0 164.355 44.252">
  <path id="Path_88559" data-name="Path 88559" d="M140.474,53.666c6.721-1.686,7.069,8.726,2.546,10.025-6.243,1.793-8.06-8.641-2.546-10.025Zm5.432,11.143c-.325,8.039-4.187,6.624-9.695,5.532l-1.216,2.88c4.07,1.325,10.686,2.368,13.417-2.1,2.329-3.809.741-11.757,1.324-16.7,1.164-.9.716-.251,1.9-.692l.044-2.966a26.567,26.567,0,0,0-3.689-.061c-.876.108-.925.16-1.329.634-.572.672-.235.737-.868,1.354-2.3-3.9-12.167-3.852-12.44,5.53-.159,5.462,3.241,9.557,8.752,8.746C144.643,66.6,144.425,65.391,145.905,64.809Z" transform="translate(-52.258 -37.754)" fill="#fff" fill-rule="evenodd"/>
  <path id="Path_88560" data-name="Path 88560" d="M102.67,49.23l.108,17.154,3.637-.006a56.676,56.676,0,0,0,.165-8.145c0-4.064,4.677-7.348,7.156-4.735,1.68,1.772.408,9.358,1.159,12.393,1.527.629,3.453.487,5.412.487a7.587,7.587,0,0,0,.143-3.225c-1.481-.016-1.1.2-1.978-.479-.151-5.481,1-12.17-4.092-13.256-4.825-1.029-6.4,2-7.771,3.2-.146-7.714,1.477-9.666-3.806-9.666Z" transform="translate(-47.899 -36.717)" fill="#fff" fill-rule="evenodd"/>
  <path id="Path_88561" data-name="Path 88561" d="M180.73,53.623c0-3.337.17-2.92-5.626-2.92a9.087,9.087,0,0,0,.075,3.206l1.914.258.028,13.241h3.609c1.108-5.038-1.6-12.282,4.133-13.512,7.562-1.621,1.962,10.1,4.743,12.968,1.141.9,3.58.542,5.233.542l-.107-3.2c-1.691-.035-1.924-.111-2-1.79-.053-1.147.03-2.644.034-3.836.009-2.578.109-5.07-1.35-6.7-1.7-1.9-6.152-2.37-8.641-.091C181.447,53,181.758,53.371,180.73,53.623Z" transform="translate(-58.174 -37.756)" fill="#fff" fill-rule="evenodd"/>
  <path id="Path_88562" data-name="Path 88562" d="M55.729,56.989c.945-4.66,7.077-5.672,7.82.024l-7.82-.024Zm11.494,8.681a12.715,12.715,0,0,0-1.569-2.828c-4.158,2.657-9.134,2.57-10.114-3.29l11.79-.012C69.161,48.6,54.671,47.211,52.043,55.968,50.112,62.4,54.758,72.019,67.223,65.669Z" transform="translate(-40.647 -37.755)" fill="#fff" fill-rule="evenodd"/>
  <path id="Path_88563" data-name="Path 88563" d="M159.57,57.019c.939-5,7.349-5.451,7.812,0ZM170.875,65.5a5.061,5.061,0,0,0-1.416-2.531c-4.424,2.323-9.42,2.507-10.041-3.441h11.751c1.541-11-12.08-12.067-15.116-3.97C152.358,65.417,164.272,71.483,170.875,65.5Z" transform="translate(-55.384 -37.756)" fill="#fff" fill-rule="evenodd"/>
  <path id="Path_88564" data-name="Path 88564" d="M41.1,47.149,41.077,50l-2.219.07-.028,2.757,2.159.223c-.027,7.171-1.4,14.616,7.989,13.781l0-3.344c-5.151-.082-4.158-3.739-4.172-10.523h3.809L48.665,50H44.8L44.8,45.439l-3.7-.082Z" transform="translate(-38.83 -37.06)" fill="#fff" fill-rule="evenodd"/>
  <path id="Path_88565" data-name="Path 88565" d="M199.973,49.884l-2.25.13,0,2.922,2.174.117c-.007,8-1.533,14.1,7.868,13.776.41-5.309-.409-2.251-2.884-4.072-1.767-1.3-1.182-6.753-1.182-9.822l3.83-.047.016-2.832-3.846-.063V45.537a10.657,10.657,0,0,0-3.723-.219Z" transform="translate(-61.402 -37.047)" fill="#fff" fill-rule="evenodd"/>
  <path id="Path_88567" data-name="Path 88567" d="M123.241,53.451l.227.527c1.771.039,1.835.149,1.906,1.871.46,11.089-2.6,11.624,5.764,11.624l-.127-3.2L129.223,64c-.808-4.2.721-9.6-.639-12.974l-5.209-.3Z" transform="translate(-50.821 -37.822)" fill="#fff" fill-rule="evenodd"/>
  <path id="Path_88568" data-name="Path 88568" d="M90.737,79.385l1.258,1.931c2.635-.914,6.076-3.645,8.772-4.765l-1.129-2.418c-1.617.54-4.865,2.653-6.658,3.628-.4.217-.731.379-1.1.622A2.9,2.9,0,0,0,90.737,79.385Z" transform="translate(-46.204 -41.147)" fill="#fff" fill-rule="evenodd"/>
  <path id="Path_88571" data-name="Path 88571" d="M94.785,81.95a8.475,8.475,0,0,0,1.125,2L101.1,80.83c.037-.033.118-.111.175-.169l-.96-1.7Z" transform="translate(-46.779 -41.834)" fill="#fff" fill-rule="evenodd"/>
  <path id="Path_88572" data-name="Path 88572" d="M125.889,46.373l1.3.1.694-.018,1.3-.067V43.022l-3.289-.081Z" transform="translate(-51.198 -36.716)" fill="#fff" fill-rule="evenodd"/>
  <path id="Path_88574" data-name="Path 88574" d="M98.009,85.307a5.85,5.85,0,0,0,.778,1.386l3.591-2.161c.026-.022.082-.077.121-.118l-.664-1.174Z" transform="translate(-47.237 -42.441)" fill="#fff" fill-rule="evenodd"/>
  <path id="Path_88575" data-name="Path 88575" d="M217.351,42.7V36.509h-2.31v-.823h5.552v.823h-2.31V42.7Zm4.18,0V35.686h1.39l1.658,4.963q.229.692.335,1.037c.08-.254.205-.63.375-1.124l1.688-4.877h1.241V42.7h-.891V36.832L225.281,42.7h-.836l-2.024-5.973V42.7Z" transform="translate(-63.863 -35.686)" fill="#fff" fill-rule="evenodd"/>
  <path id="Path_88576" data-name="Path 88576" d="M78.8,64.834A12.18,12.18,0,0,1,77.109,62a10.192,10.192,0,0,1,1.265-9.916,4.671,4.671,0,0,0,.483-.667,12.9,12.9,0,0,1,4.363-3.064,12.336,12.336,0,0,1,1.63-.552l.094,0c.153.013.025-.028.124.039a11.356,11.356,0,0,1-.156,1.374,11.93,11.93,0,0,0-.165,1.435c1.186-.275,10.162-3.674,10.626-3.712-.085-.318-.666-.831-.91-1.073L87.87,40.289a6.729,6.729,0,0,0-1.2-.847,24.752,24.752,0,0,1-.691,3.469,1.649,1.649,0,0,1-.765.516l-.085.046-3.376.588a14.688,14.688,0,0,0-2.887,1.077,13.653,13.653,0,0,0-2.611,1.748c-.132.111-.2.2-.323.317a12.454,12.454,0,0,0-2.282,2.71,14.8,14.8,0,0,0-2.278,7.693v.036A13.958,13.958,0,0,0,73.7,65.849c.093.139.166.231.265.375.18.26.366.461.565.715a13.59,13.59,0,0,0,4.192,3.291,14.088,14.088,0,0,0,3.783,1.3,15.269,15.269,0,0,0,3.65.3,14.276,14.276,0,0,0,2.66-.347c.162-.036.274-.066.413-.1l.383-.125a10.871,10.871,0,0,0,3.008-1.22c.213-.111.371-.2.574-.323A11.164,11.164,0,0,0,97.358,65.3h0l-1.792-.64a12.876,12.876,0,0,1-1.585,1.551,4.01,4.01,0,0,1-.325.315,10.455,10.455,0,0,1-1.462,1.034,7.913,7.913,0,0,1-1.785.776l-.748.211-.1.027-.1.034a.234.234,0,0,0-.045.019,13.587,13.587,0,0,1-3.651.134,14.684,14.684,0,0,1-3.067-.818c-.078-.07-.017-.023-.124-.083a10.267,10.267,0,0,1-3.35-2.543A5.549,5.549,0,0,0,78.8,64.834Z" transform="translate(-43.453 -36.219)" fill="#fff" fill-rule="evenodd"/>
</svg>
