<svg id="Component_237_1" data-name="Component 237 – 1" xmlns="http://www.w3.org/2000/svg" width="47.295" height="47.281" viewBox="0 0 47.295 47.281">
  <path id="Path_76391" data-name="Path 76391" d="M245.986,33.612a2.151,2.151,0,0,0-1.949,2.149v3.928a16.355,16.355,0,0,0-1.814.873L239.1,37.44h0a2.152,2.152,0,0,0-3.158.168l-5.374,6.447h0a2.148,2.148,0,0,0,.135,2.887l2.15,2.149c-.247.516-.633,1.106-.907,1.713h-2.956a2.149,2.149,0,0,0-2.15,2.149v8.6a2.149,2.149,0,0,0,2.15,2.149h2.956c.272.6.628,1.2.873,1.713L230.7,67.526a2.149,2.149,0,0,0-.135,2.922l5.374,6.447a2.15,2.15,0,0,0,3.158.134l3.124-3.123a16.423,16.423,0,0,0,1.814.873v3.962h0a2.151,2.151,0,0,0,2.15,2.149h8.6a2.149,2.149,0,0,0,2.15-2.149V74.78a16.354,16.354,0,0,0,1.814-.873l3.124,3.123h0a2.15,2.15,0,0,0,3.158-.134l5.374-6.447a2.149,2.149,0,0,0-.134-2.922l-2.116-2.115c.245-.513.6-1.111.873-1.713h2.955a2.149,2.149,0,0,0,2.15-2.149v-8.6a2.149,2.149,0,0,0-2.15-2.149h-2.956c-.274-.606-.659-1.2-.907-1.713l2.15-2.149h0a2.149,2.149,0,0,0,.134-2.887l-5.374-6.447h0a2.152,2.152,0,0,0-3.158-.168l-3.124,3.123a16.415,16.415,0,0,0-1.814-.873V35.76h0a2.15,2.15,0,0,0-2.15-2.149h-8.6c-.067,0-.135,0-.2,0Zm2.351,4.3h4.3v3.224a2.149,2.149,0,0,0,1.645,2.082,14.372,14.372,0,0,1,3.695,1.881h0a2.15,2.15,0,0,0,2.62-.3l2.653-2.653,2.587,3.156-1.814,1.813a2.148,2.148,0,0,0-.235,2.787c.594.84.768,1.776,1.982,4.063a2.149,2.149,0,0,0,1.914,1.142h2.15v4.3h-2.15a2.152,2.152,0,0,0-1.914,1.142c-1.214,2.288-1.387,3.222-1.982,4.063a2.149,2.149,0,0,0,.235,2.753l1.848,1.847-2.62,3.123L260.6,69.675h0a2.151,2.151,0,0,0-2.62-.3,14.408,14.408,0,0,1-3.695,1.881h0a2.15,2.15,0,0,0-1.645,2.115v3.224h-4.3V73.369a2.15,2.15,0,0,0-1.646-2.115A14.371,14.371,0,0,1,243,69.373h0a2.151,2.151,0,0,0-2.62.3l-2.653,2.653-2.62-3.123,1.848-1.847h0a2.149,2.149,0,0,0,.235-2.753c-.594-.84-.768-1.776-1.982-4.063a2.153,2.153,0,0,0-1.915-1.142h-2.15V55.1h2.15A2.15,2.15,0,0,0,235.2,53.96c1.214-2.288,1.387-3.222,1.982-4.063a2.149,2.149,0,0,0-.235-2.787L235.136,45.3l2.587-3.156,2.653,2.653a2.15,2.15,0,0,0,2.62.3,14.409,14.409,0,0,1,3.695-1.881h0a2.151,2.151,0,0,0,1.646-2.082ZM256.869,49.7h0a2.15,2.15,0,0,0-1.612.84l-6.92,8.663-2.62-3.29h0a2.15,2.15,0,0,0-3.359,2.686l4.3,5.373a2.15,2.15,0,0,0,3.359,0l8.6-10.745h0a2.149,2.149,0,0,0-1.746-3.525Z" transform="translate(-226.839 -33.609)" fill="#1587c3"/>
</svg>
