<svg xmlns="http://www.w3.org/2000/svg" xmlns:xlink="http://www.w3.org/1999/xlink" width="423.166" height="423.254" viewBox="0 0 423.166 423.254">
  <defs>
    <clipPath id="clip-path">
      <rect id="Rectangle_10830" data-name="Rectangle 10830" width="422.775" height="422.775" fill="rgba(93,97,134,0.32)"/>
    </clipPath>
    <clipPath id="clip-path-2">
      <rect id="Rectangle_10831" data-name="Rectangle 10831" width="423.166" height="423.166" fill="rgba(93,97,134,0.32)"/>
    </clipPath>
  </defs>
  <g id="Component_232_1" data-name="Component 232 – 1" transform="translate(0 0)">
    <g id="Group_54502" data-name="Group 54502" transform="translate(423.166 423.253) rotate(180)" style="mix-blend-mode: normal;isolation: isolate">
      <g id="Group_54471" data-name="Group 54471" transform="translate(32.427 41.436)">
        <path id="Path_60199" data-name="Path 60199" d="M0,3.772A3.772,3.772,0,1,1,3.771,7.544,3.772,3.772,0,0,1,0,3.772Z" transform="translate(350.768 332.75)" fill="rgba(93,97,134,0.32)"/>
        <path id="Path_60200" data-name="Path 60200" d="M0,3.772A3.772,3.772,0,1,1,3.772,7.544,3.771,3.771,0,0,1,0,3.772Z" transform="translate(0 0)" fill="rgba(93,97,134,0.32)"/>
      </g>
      <g id="Group_54485" data-name="Group 54485" transform="translate(0 0.087)">
        <g id="Group_54484" data-name="Group 54484" clip-path="url(#clip-path-2)">
          <g id="Group_54483" data-name="Group 54483" transform="translate(85.831 -12.285)">
            <g id="Group_54482" data-name="Group 54482" transform="translate(0 0)">
              <g id="Group_54481" data-name="Group 54481">
                <path id="Path_60256" data-name="Path 60256" d="M0,2.168A2.182,2.182,0,0,1,2.2,0a2.185,2.185,0,0,1,2.2,2.168A2.182,2.182,0,0,1,2.2,4.332,2.178,2.178,0,0,1,0,2.168Z" transform="translate(343.529 157.479)" fill="rgba(93,97,134,0.32)"/>
                <g id="Group_54479" data-name="Group 54479" transform="translate(329.994 54.893)">
                  <path id="Path_60257" data-name="Path 60257" d="M9.569,5.534,4.784,8.3,0,11.062V0L4.784,2.763Z" transform="translate(0 0)" fill="rgba(93,97,134,0.32)"/>
                </g>
                <path id="Path_60258" data-name="Path 60258" d="M0,2.168A2.181,2.181,0,0,1,2.2,0,2.179,2.179,0,0,1,4.392,2.167,2.18,2.18,0,0,1,2.2,4.331,2.18,2.18,0,0,1,0,2.168Z" transform="translate(284.642 6.016)" fill="rgba(93,97,134,0.32)"/>
                <g id="Group_54480" data-name="Group 54480">
                  <path id="Path_60259" data-name="Path 60259" d="M9.454,18.657A9.4,9.4,0,0,0,18.912,9.33,9.4,9.4,0,0,0,9.456,0,9.4,9.4,0,0,0,0,9.33,9.4,9.4,0,0,0,9.454,18.657Zm0-18.119A8.863,8.863,0,0,1,18.368,9.33a8.861,8.861,0,0,1-8.914,8.791A8.862,8.862,0,0,1,.544,9.33,8.863,8.863,0,0,1,9.456.537Z" transform="translate(129.397 33.072)" fill="rgba(93,97,134,0.32)"/>
                  <path id="Path_60260" data-name="Path 60260" d="M14.782,7.29A7.349,7.349,0,0,0,7.391,0,7.349,7.349,0,0,0,0,7.29a7.349,7.349,0,0,0,7.39,7.293A7.352,7.352,0,0,0,14.782,7.29Zm-13.42,0a6.029,6.029,0,0,1,12.058,0,6.029,6.029,0,0,1-12.058,0Z" transform="translate(306.149 117.251)" fill="rgba(93,97,134,0.32)"/>
                  <path id="Path_60261" data-name="Path 60261" d="M3.308,0A3.283,3.283,0,0,0,0,3.266,3.286,3.286,0,0,0,3.308,6.528,3.285,3.285,0,0,0,6.617,3.266,3.284,3.284,0,0,0,3.308,0Z" transform="translate(110.827 50.196)" fill="rgba(93,97,134,0.32)"/>
                  <path id="Path_60262" data-name="Path 60262" d="M3.311,33.815A3.289,3.289,0,0,0,6.62,30.548a3.241,3.241,0,0,0-.078-.7h49.7l10.1,11.88h-18.8a2.159,2.159,0,1,0,0,1.342H82.089a13.933,13.933,0,0,0,27.813,0h14.9L142.412,60.45h30.959a3.319,3.319,0,0,0,6.477,0h14.281l-12.471,12.3H143.279a2.165,2.165,0,1,0,0,1.344h38.942L196.055,60.45h11.614a35.285,35.285,0,0,0,6.182,19.3l-.019-.019-13.2,13.025.952.939L184.394,83.9,167,93.812v19.819l17.4,9.908,17.4-9.909,0-19.818-.2-.111,13.037-12.859A36.422,36.422,0,0,0,243.3,95.588v6.526l-11.266,6.418v4.977l-9.963,9.83V106.746l4.118-4.06-.962-.953-4.518,4.456v18.493l-9.634,9.5v24l-8.135,8.026a2.156,2.156,0,1,0,1.208,1.925,2.126,2.126,0,0,0-.245-.976l8.535-8.421v-24l19.6-19.334v6.064l-15.849,15.636v38.9h1.363V137.667l15.28-15.074L243.3,128.56v13.871l15.752,15.54v14.839a3.256,3.256,0,0,0,0,6.389v16.345a2.2,2.2,0,1,0,1.362,0V179.2a3.255,3.255,0,0,0,0-6.389v-15.4l-15.753-15.539V128.561l11.266-6.421V108.532l-7.46-4.25V90.549a31.611,31.611,0,0,0,16.95-8.008l5.823,5.744h24.489a2.165,2.165,0,1,0,.123-1.344H271.806L266.4,81.606a30.731,30.731,0,0,0,0-43.659l2.431-2.4a34.138,34.138,0,0,1,10.109,24.227H280.3A35.467,35.467,0,0,0,269.792,34.6l30.157-29.75a2.186,2.186,0,0,0,3.185-1.927,2.2,2.2,0,0,0-4.393,0,2.123,2.123,0,0,0,.245.976L268.813,33.664a36.448,36.448,0,0,0-24.83-9.717v1.344a35.07,35.07,0,0,1,23.867,9.324l-2.431,2.4a31.746,31.746,0,0,0-43.22.325L211.028,26.316h-19.19L168.074,2.875a2.122,2.122,0,0,0,.13-.708,2.2,2.2,0,0,0-4.392,0,2.182,2.182,0,0,0,2.2,2.168,2.213,2.213,0,0,0,1.237-.379l22.666,22.362h-5.533L160.652,2.912a2.129,2.129,0,0,0,.142-.746,2.2,2.2,0,0,0-4.391,0,2.2,2.2,0,0,0,3.4,1.81L182.45,26.317H154.72a2.167,2.167,0,1,0,0,1.343h29.092l.1.1.1-.1h7.26l.1.1.1-.1h18.992l10.773,10.627a30.76,30.76,0,0,0-8.77,21.488A31.324,31.324,0,0,0,243.3,90.852v3.393c-18.96-.361-34.276-15.678-34.275-34.468v-.672H179.849a3.319,3.319,0,0,0-6.478,0h-30.4L125.362,41.729H109.9a13.933,13.933,0,0,0-27.813,0H68.117L56.873,28.505H5.89a3.324,3.324,0,0,0-2.579-1.223,3.266,3.266,0,1,0,0,6.532Zm197.117,79.041-16.034,9.133-16.034-9.133V94.589l16.034-9.133,16.035,9.133Zm54.139,8.512L243.982,127.4,233.4,121.369V109.305l10.587-6.027,10.585,6.027Zm-7.459-17.861-2.446-1.393V90.852c.823-.017,1.64-.058,2.446-.136ZM244.661,59.5,226.334,41.417a25.721,25.721,0,0,1,43.314,18.36,25.511,25.511,0,0,1-24.986,25.3Zm-1.361.558V85.082a25.509,25.509,0,0,1-24.984-25.3,25.049,25.049,0,0,1,7.055-17.411Zm.682-30.027a29.742,29.742,0,1,1,.679,59.481V85.62a25.853,25.853,0,1,0-.68-51.7,26.3,26.3,0,0,0-18.033,7.119l-2.787-2.75A30.261,30.261,0,0,1,243.983,30.029ZM213.826,59.777a29.43,29.43,0,0,1,8.372-20.54l2.788,2.75a25.578,25.578,0,0,0-7.217,17.79A26.052,26.052,0,0,0,243.3,85.62v3.89A29.973,29.973,0,0,1,213.826,59.777ZM96,30.008A12.394,12.394,0,1,1,83.434,42.4,12.493,12.493,0,0,1,96,30.008Z" transform="translate(42.857 0)" fill="rgba(93,97,134,0.32)"/>
                  <path id="Path_60263" data-name="Path 60263" d="M3.31,6.531A3.288,3.288,0,0,0,6.62,3.266,3.289,3.289,0,0,0,3.31,0,3.289,3.289,0,0,0,0,3.266,3.287,3.287,0,0,0,3.31,6.531Z" transform="translate(274.085 150.341)" fill="rgba(93,97,134,0.32)"/>
                  <path id="Path_60264" data-name="Path 60264" d="M3.31,6.531A3.289,3.289,0,0,0,6.62,3.266,3.288,3.288,0,0,0,3.31,0,3.289,3.289,0,0,0,0,3.266,3.287,3.287,0,0,0,3.31,6.531Z" transform="translate(274.085 140.324)" fill="rgba(93,97,134,0.32)"/>
                  <path id="Path_60265" data-name="Path 60265" d="M3.309,0A3.286,3.286,0,0,0,0,3.264,3.288,3.288,0,0,0,3.309,6.531,3.288,3.288,0,0,0,6.619,3.264,3.287,3.287,0,0,0,3.309,0Z" transform="translate(199.187 105.591)" fill="rgba(93,97,134,0.32)"/>
                  <path id="Path_60266" data-name="Path 60266" d="M3.308,6.527A3.287,3.287,0,0,0,6.618,3.262,3.285,3.285,0,0,0,3.308,0,3.282,3.282,0,0,0,0,3.263,3.285,3.285,0,0,0,3.308,6.527Z" transform="translate(199.188 95.578)" fill="rgba(93,97,134,0.32)"/>
                  <path id="Path_60267" data-name="Path 60267" d="M4.393,2.165A2.179,2.179,0,0,0,2.2,0,2.181,2.181,0,0,0,0,2.165,2.182,2.182,0,0,0,2.2,4.333,2.181,2.181,0,0,0,4.393,2.165Z" transform="translate(311.342 122.375)" fill="rgba(93,97,134,0.32)"/>
                  <path id="Path_60268" data-name="Path 60268" d="M7.392,14.585A7.349,7.349,0,0,0,14.78,7.294,7.35,7.35,0,0,0,7.392,0,7.352,7.352,0,0,0,0,7.294,7.353,7.353,0,0,0,7.392,14.585Zm0-13.24A6,6,0,0,1,13.42,7.295a6.029,6.029,0,0,1-12.058,0A6,6,0,0,1,7.392,1.346Z" transform="translate(279.448 0.889)" fill="rgba(93,97,134,0.32)"/>
                  <path id="Path_60269" data-name="Path 60269" d="M0,7.291a7.349,7.349,0,0,0,7.391,7.291,7.349,7.349,0,0,0,7.391-7.291A7.349,7.349,0,0,0,7.391,0,7.349,7.349,0,0,0,0,7.291ZM7.392,1.343a6,6,0,0,1,6.027,5.948,6.029,6.029,0,0,1-12.056,0A6,6,0,0,1,7.392,1.343Z" transform="translate(338.334 152.355)" fill="rgba(93,97,134,0.32)"/>
                  <path id="Path_60270" data-name="Path 60270" d="M7.389,14.581A7.348,7.348,0,0,0,14.78,7.291,7.349,7.349,0,0,0,7.389,0,7.347,7.347,0,0,0,0,7.291,7.348,7.348,0,0,0,7.389,14.581Zm0-13.239a6,6,0,0,1,6.029,5.948,6.029,6.029,0,0,1-12.056,0A6,6,0,0,1,7.389,1.343Z" transform="translate(167.082 6.763)" fill="rgba(93,97,134,0.32)"/>
                  <path id="Path_60271" data-name="Path 60271" d="M2.2,4.335A2.181,2.181,0,0,0,4.392,2.168,2.183,2.183,0,0,0,2.195,0,2.182,2.182,0,0,0,0,2.168,2.182,2.182,0,0,0,2.2,4.335Z" transform="translate(172.276 11.886)" fill="rgba(93,97,134,0.32)"/>
                  <path id="Path_60272" data-name="Path 60272" d="M2.195,0A2.177,2.177,0,0,0,0,2.167,2.181,2.181,0,0,0,2.195,4.334a2.182,2.182,0,0,0,2.2-2.167A2.181,2.181,0,0,0,2.195,0Z" transform="translate(311.345 104.339)" fill="rgba(93,97,134,0.32)"/>
                  <path id="Path_60273" data-name="Path 60273" d="M2.2,4.335a2.2,2.2,0,0,0,.989-.242l19.758,19.49H85.4V22.24H59.685L48.361,11.067H27.992v1.344H47.8l9.962,9.829H23.509L4.15,3.143A2.125,2.125,0,0,0,4.4,2.166,2.181,2.181,0,0,0,2.2,0,2.184,2.184,0,0,0,0,2.167,2.183,2.183,0,0,0,2.2,4.335Z" transform="translate(165.308 30.548)" fill="rgba(93,97,134,0.32)"/>
                  <path id="Path_60274" data-name="Path 60274" d="M28.257,25.82a2.2,2.2,0,0,0-.917.2L.962,0,0,.953,26.344,26.94a2.119,2.119,0,0,0-.285,1.047,2.2,2.2,0,1,0,2.2-2.167Z" transform="translate(325.323 171.776)" fill="rgba(93,97,134,0.32)"/>
                  <path id="Path_60275" data-name="Path 60275" d="M35.952,94.765V70.847L18.526,53.657V17.327L.963,0,0,.95,17.165,17.883v89.124L5.9,113.426v13.611l11.266,6.417v60.511h1.362V133.453l3.586-2.042v34.5a2.2,2.2,0,1,0,1.361,0V130.636l6.322-3.6,0-13.611-11.266-6.419V55.557L34.591,71.4V94.815a2.2,2.2,0,1,0,1.361-.05Zm-7.519,31.5-6.027,3.432h-.294v.168l-4.266,2.429L7.26,126.26V114.2l10.585-6.031L28.432,114.2Z" transform="translate(290.456 137.064)" fill="rgba(93,97,134,0.32)"/>
                  <path id="Path_60276" data-name="Path 60276" d="M1.867,3.355,3.733,6.71,5.746,3.437,7.757.165,3.879.082,0,0Z" transform="translate(295.403 215.092)" fill="rgba(93,97,134,0.32)"/>
                  <path id="Path_60277" data-name="Path 60277" d="M0,3.682,3.318,5.666,6.633,7.651l.085-3.826L6.8,0,3.4,1.84Z" transform="translate(100.165 49.635)" fill="rgba(93,97,134,0.32)"/>
                  <path id="Path_60278" data-name="Path 60278" d="M0,3.683,3.319,5.667,6.636,7.654,6.72,3.826,6.8,0,3.4,1.841Z" transform="translate(209.105 122.882)" fill="rgba(93,97,134,0.32)"/>
                  <path id="Path_60279" data-name="Path 60279" d="M.167,0,.085,3.827,0,7.653,3.4,5.81l3.4-1.84L3.485,1.986Z" transform="translate(337.323 118.548)" fill="rgba(93,97,134,0.32)"/>
                  <path id="Path_60280" data-name="Path 60280" d="M3.733,6.713,5.747,3.44,7.759.165,3.88.084,0,0,1.868,3.356Z" transform="translate(253.322 93.781)" fill="rgba(93,97,134,0.32)"/>
                  <path id="Path_60281" data-name="Path 60281" d="M0,0,1.867,3.357,3.733,6.711,5.746,3.44,7.759.166,3.879.085Z" transform="translate(261.248 243.719)" fill="rgba(93,97,134,0.32)"/>
                  <path id="Path_60282" data-name="Path 60282" d="M0,0,1.868,3.356,3.733,6.711,5.746,3.438,7.759.164,3.88.082Z" transform="translate(304.422 331.028)" fill="rgba(93,97,134,0.32)"/>
                  <path id="Path_60283" data-name="Path 60283" d="M5.744,3.438,7.757.166,3.879.084,0,0,1.867,3.354,3.733,6.712Z" transform="translate(295.403 205.938)" fill="rgba(93,97,134,0.32)"/>
                  <path id="Path_60284" data-name="Path 60284" d="M0,4.659v9.317l8.18,4.661,8.178-4.661V4.659L8.18,0Zm15.814,9.006L8.18,18.015.544,13.665l0-8.7L8.18.621,15.815,4.97Z" transform="translate(300.122 247.976)" fill="rgba(93,97,134,0.32)"/>
                  <path id="Path_60285" data-name="Path 60285" d="M.135,7.649,0,7.725V23.179l13.566,7.728L27,23.257l.138-.077V7.726L13.566,0ZM26.588,22.872,13.566,30.287.544,22.872V8.037L13.566.619,26.588,8.038Z" transform="translate(213.685 88.269)" fill="rgba(93,97,134,0.32)"/>
                  <path id="Path_60286" data-name="Path 60286" d="M9.888,8.451V2.817L4.945,0,0,2.817V8.451l4.944,2.816Z" transform="translate(263.565 14.054)" fill="rgba(93,97,134,0.32)"/>
                  <path id="Path_60287" data-name="Path 60287" d="M0,1.772V5.315L3.112,7.089l3.11-1.774V1.772L3.112,0Z" transform="translate(229.923 140.045)" fill="rgba(93,97,134,0.32)"/>
                  <path id="Path_60288" data-name="Path 60288" d="M0,2.424v4.85L4.258,9.7,8.516,7.275V2.424L4.258,0Z" transform="translate(125.411 67.687)" fill="rgba(93,97,134,0.32)"/>
                  <path id="Path_60289" data-name="Path 60289" d="M0,14.9,8.723,19.87,17.444,14.9V4.967L8.724,0,0,4.967ZM.545,5.278,8.723.62,16.9,5.278V14.59L8.723,19.248.545,14.59Z" transform="translate(278.116 105.402)" fill="rgba(93,97,134,0.32)"/>
                  <path id="Path_60290" data-name="Path 60290" d="M1.515,0V61.442A2.157,2.157,0,0,0,2.2,65.659a2.157,2.157,0,0,0,.68-4.217V0Z" transform="translate(262.932 137.538)" fill="rgba(93,97,134,0.32)"/>
                  <path id="Path_60291" data-name="Path 60291" d="M0,3.4,2.985,5.1,5.968,6.8V0L2.985,1.7Z" transform="translate(68.596 42.989)" fill="rgba(93,97,134,0.32)"/>
                  <path id="Path_60292" data-name="Path 60292" d="M0,.948,52.365,52.606a2.124,2.124,0,0,0-.341,1.148,2.206,2.206,0,1,0,1.392-2.011L13.845,12.706h13.7l10.046,9.911.963-.951-10.445-10.3-15.629,0L.964,0Z" transform="translate(293.701 132.194)" fill="rgba(93,97,134,0.32)"/>
                  <path id="Path_60293" data-name="Path 60293" d="M6.719,3.828,6.8,0,3.4,1.845,0,3.686,3.317,5.673,6.634,7.655Z" transform="translate(233.034 35.726)" fill="rgba(93,97,134,0.32)"/>
                  <path id="Path_60294" data-name="Path 60294" d="M6.72,3.827,6.8,0,3.4,1.843,0,3.685,3.318,5.669,6.635,7.654Z" transform="translate(242.313 35.727)" fill="rgba(93,97,134,0.32)"/>
                  <path id="Path_60295" data-name="Path 60295" d="M7.7,6.76,5.849,3.38,4,0,2,3.3l-2,3.3,3.852.081Z" transform="translate(308.33 1.422)" fill="rgba(93,97,134,0.32)"/>
                  <path id="Path_60296" data-name="Path 60296" d="M7.7,6.761,5.849,3.381,4,0,2,3.3l-2,3.3,3.852.085Z" transform="translate(308.329 10.642)" fill="rgba(93,97,134,0.32)"/>
                  <path id="Path_60297" data-name="Path 60297" d="M.07,11.858a3.319,3.319,0,0,0,6.479,0l37.973,0-4.047,3.992h-19.8a2.159,2.159,0,1,0,0,1.343H41.041l5.41-5.336H60.343L78.8,22.372V0L60.337,10.516H6.549a3.32,3.32,0,0,0-6.479,0H0v1.342ZM77.44,2.329v17.72L61.887,11.188Z" transform="translate(0 35.201)" fill="rgba(93,97,134,0.32)"/>
                  <path id="Path_60298" data-name="Path 60298" d="M52.394,14.837l1.058-.848L41.937,0,0,0V1.344H41.287Z" transform="translate(60.715 23.234)" fill="rgba(93,97,134,0.32)"/>
                  <path id="Path_60299" data-name="Path 60299" d="M14.747,6.619A7.361,7.361,0,0,0,7.392,0,7.35,7.35,0,0,0,0,7.29a7.394,7.394,0,0,0,14.747.672H51.609a2.169,2.169,0,1,0-.031-1.343ZM7.392,13.238A6,6,0,0,1,1.363,7.29a6.029,6.029,0,0,1,12.058,0A6,6,0,0,1,7.392,13.238Z" transform="translate(306.148 99.215)" fill="rgba(93,97,134,0.32)"/>
                  <path id="Path_60300" data-name="Path 60300" d="M0,2.816V8.448l4.943,2.817L9.889,8.448V2.816L4.944,0Z" transform="translate(272.451 170.375)" fill="rgba(93,97,134,0.32)"/>
                  <path id="Path_60301" data-name="Path 60301" d="M4.945,11.266,9.89,8.449l0-5.633L4.945,0,0,2.817V8.449Z" transform="translate(115.175 19.873)" fill="rgba(93,97,134,0.32)"/>
                  <path id="Path_60302" data-name="Path 60302" d="M22.689,25.845V0L0,12.922ZM21.327,12.923V23.517L2.726,12.922l18.6-10.595Z" transform="translate(145.499 56.008)" fill="rgba(93,97,134,0.32)"/>
                  <path id="Path_60303" data-name="Path 60303" d="M11.34,19.376,22.68,0H0Zm0-2.689L2.359,1.342H20.32Z" transform="translate(253.788 207.442)" fill="rgba(93,97,134,0.32)"/>
                </g>
                <path id="Path_60304" data-name="Path 60304" d="M0,5.245A5.28,5.28,0,0,1,5.318,0a5.282,5.282,0,0,1,5.317,5.245A5.283,5.283,0,0,1,5.318,10.49,5.282,5.282,0,0,1,0,5.245Z" transform="translate(133.535 37.157)" fill="rgba(93,97,134,0.32)"/>
                <path id="Path_60305" data-name="Path 60305" d="M0,9.153A9.218,9.218,0,0,1,9.279,0a9.215,9.215,0,0,1,9.277,9.153,9.216,9.216,0,0,1-9.277,9.154A9.217,9.217,0,0,1,0,9.153Z" transform="translate(277.561 50.625)" fill="rgba(93,97,134,0.32)"/>
                <path id="Path_60306" data-name="Path 60306" d="M0,2.208,3.88,0,7.758,2.208v4.42L3.88,8.838,0,6.628Z" transform="translate(304.422 252.875)" fill="rgba(93,97,134,0.32)"/>
                <path id="Path_60307" data-name="Path 60307" d="M0,4.425,7.769,0l7.77,4.425v8.853L7.769,17.7,0,13.277Z" transform="translate(219.481 94.871)" fill="rgba(93,97,134,0.32)"/>
                <path id="Path_60308" data-name="Path 60308" d="M0,2.167,3.808,0,7.615,2.168V6.5L3.808,8.669,0,6.5Z" transform="translate(283.032 111.003)" fill="rgba(93,97,134,0.32)"/>
                <path id="Path_60309" data-name="Path 60309" d="M0,3.989,3.5,1.994,7,0V7.978l-3.5-2Z" transform="translate(156.331 64.941)" fill="rgba(93,97,134,0.32)"/>
                <path id="Path_60310" data-name="Path 60310" d="M3.447,5.89,1.722,2.946,0,0H6.894L5.17,2.946Z" transform="translate(261.681 211.622)" fill="rgba(93,97,134,0.32)"/>
              </g>
            </g>
          </g>
        </g>
      </g>
    </g>
  </g>
</svg>
