<svg id="Component_226_5" data-name="Component 226 – 5" xmlns="http://www.w3.org/2000/svg" width="44.077" height="66.135" viewBox="0 0 44.077 66.135">
  <g id="Group_74146" data-name="Group 74146" transform="translate(0 0)">
    <path id="Path_88568" data-name="Path 88568" d="M90.737,82.6l2.027,3.113c4.247-1.473,9.794-5.875,14.139-7.681l-1.82-3.9c-2.607.871-7.841,4.276-10.733,5.848-.644.35-1.178.611-1.767,1A4.674,4.674,0,0,0,90.737,82.6Z" transform="translate(-63.954 -26.158)" fill="#1587c3" fill-rule="evenodd"/>
    <path id="Path_88571" data-name="Path 88571" d="M94.785,83.778A13.661,13.661,0,0,0,96.6,87.01l8.371-5.038c.059-.053.191-.178.282-.272L103.7,78.963Z" transform="translate(-62.404 -24.309)" fill="#1587c3" fill-rule="evenodd"/>
    <path id="Path_88574" data-name="Path 88574" d="M98.009,86.571a9.429,9.429,0,0,0,1.254,2.235l5.789-3.484c.042-.036.131-.124.195-.189l-1.07-1.892Z" transform="translate(-61.17 -22.671)" fill="#1587c3" fill-rule="evenodd"/>
    <path id="Path_88576" data-name="Path 88576" d="M83.339,80.371c-1.365-2.1-1.365-1.564-2.719-4.575a16.428,16.428,0,0,1,2.04-15.984,7.529,7.529,0,0,0,.779-1.076c1-.653,2.509-3.132,7.033-4.938a19.884,19.884,0,0,1,2.628-.889l.151,0c.246.021.04-.046.2.064a18.306,18.306,0,0,1-.252,2.215,19.229,19.229,0,0,0-.266,2.314c1.911-.444,16.381-5.922,17.127-5.984-.137-.513-1.073-1.34-1.467-1.73L97.966,40.807a10.848,10.848,0,0,0-1.936-1.365,39.9,39.9,0,0,1-1.115,5.592,2.659,2.659,0,0,1-1.234.833l-.137.075-5.442.947a23.674,23.674,0,0,0-4.654,1.736,22.008,22.008,0,0,0-4.208,2.817c-.213.178-.317.329-.521.51a20.075,20.075,0,0,0-3.679,4.369,23.851,23.851,0,0,0-3.672,12.4v.058a22.5,22.5,0,0,0,3.76,13.229c.149.224.267.372.427.6.29.419.59.743.911,1.152a21.906,21.906,0,0,0,6.757,5.3,22.708,22.708,0,0,0,6.1,2.1c1.062.456,4.5.476,5.883.484a23.009,23.009,0,0,0,4.288-.56c.261-.058.441-.106.665-.162l.617-.2a17.522,17.522,0,0,0,4.848-1.966c.343-.178.6-.324.925-.521a18,18,0,0,0,6.71-7.114h0l-2.889-1.032a20.756,20.756,0,0,1-2.556,2.5,6.463,6.463,0,0,1-.524.508,16.851,16.851,0,0,1-2.356,1.666,12.755,12.755,0,0,1-2.876,1.252l-1.206.34c-.035.008-.134.035-.165.044l-.154.055a.378.378,0,0,0-.073.03c-1.184,0-2.4.617-5.884.216a23.669,23.669,0,0,1-4.944-1.319c-.126-.113-.028-.037-.2-.134a16.55,16.55,0,0,1-5.4-4.1A8.945,8.945,0,0,0,83.339,80.371Z" transform="translate(-71.37 -39.442)" fill="#1587c3" fill-rule="evenodd"/>
  </g>
</svg>
