<svg id="Component_238_1" data-name="Component 238 – 1" xmlns="http://www.w3.org/2000/svg" width="47.281" height="47.281" viewBox="0 0 47.281 47.281">
  <g id="Group_61788" data-name="Group 61788">
    <path id="Path_76392" data-name="Path 76392" d="M277.511,227.941a1.969,1.969,0,0,1,1.97,1.971,1.97,1.97,0,0,0,3.94,0,5.91,5.91,0,1,0-11.82,0,1.97,1.97,0,1,0,3.94,0,1.97,1.97,0,0,1,1.97-1.971Z" transform="translate(-261.751 -210.21)" fill="#1587c3"/>
    <path id="Path_76393" data-name="Path 76393" d="M367.109,224a5.911,5.911,0,0,0-5.911,5.911,1.97,1.97,0,0,0,3.941,0,1.97,1.97,0,1,1,3.94,0,1.97,1.97,0,1,0,3.94,0,5.909,5.909,0,0,0-5.91-5.911Z" transform="translate(-335.588 -210.209)" fill="#1587c3"/>
    <path id="Path_76394" data-name="Path 76394" d="M239.243,145.6a23.64,23.64,0,1,0,16.717,6.924A23.641,23.641,0,0,0,239.243,145.6Zm0,43.342a19.7,19.7,0,1,1,13.93-5.77A19.7,19.7,0,0,1,239.243,188.942Z" transform="translate(-215.602 -145.6)" fill="#1587c3"/>
    <path id="Path_76395" data-name="Path 76395" d="M310.843,303.482l-1.163,1.152h0a7.725,7.725,0,0,1-10.658,0l-1.163-1.152h0a1.97,1.97,0,0,0-2.778,2.778l1.152,1.163a11.486,11.486,0,0,0,16.234,0l1.152-1.163a1.97,1.97,0,0,0-2.778-2.778Z" transform="translate(-280.711 -275.32)" fill="#1587c3"/>
  </g>
</svg>
