<svg id="Component_228_1" data-name="Component 228 – 1" xmlns="http://www.w3.org/2000/svg" xmlns:xlink="http://www.w3.org/1999/xlink" width="485" height="875" viewBox="0 0 485 875">
  <defs>
    <clipPath id="clip-path">
      <rect id="Rectangle_10638" data-name="Rectangle 10638" width="485" height="875" transform="translate(0 0.219)" fill="#fff"/>
    </clipPath>
    <linearGradient id="linear-gradient" x1="0.73" y1="0.467" x2="0.5" y2="1" gradientUnits="objectBoundingBox">
      <stop offset="0" stop-color="#1587c3"/>
      <stop offset="1" stop-color="#1f568c"/>
    </linearGradient>
    <clipPath id="clip-path-2">
      <rect id="Rectangle_10830" data-name="Rectangle 10830" width="393.281" height="393.281" fill="#fff"/>
    </clipPath>
    <clipPath id="clip-path-3">
      <rect id="Rectangle_10831" data-name="Rectangle 10831" width="393.644" height="393.644" fill="#fff"/>
    </clipPath>
  </defs>
  <g id="Mask_Group_148" data-name="Mask Group 148" transform="translate(0 -0.219)" clip-path="url(#clip-path)">
    <path id="Path_59122" data-name="Path 59122" d="M42.606,0H609.978a42.606,42.606,0,0,1,42.606,42.606V761.94a42.606,42.606,0,0,1-42.606,42.606H42.606A42.606,42.606,0,0,1,0,761.94V42.606A42.606,42.606,0,0,1,42.606,0Z" transform="matrix(-0.656, 0.755, -0.755, -0.656, 1072.36, 523.756)" fill="url(#linear-gradient)"/>
    <g id="Group_53665" data-name="Group 53665" transform="translate(304.527 366.706)">
      <path id="Path_59123" data-name="Path 59123" d="M67.526,138.559c38.254-.847,70.054-32.547,71.028-70.8S109.3-.83,71.051.017,1,32.564.023,70.822,29.272,139.406,67.526,138.559Z" transform="translate(22.646 159.359) rotate(-99.405)" fill="none" stroke="#fff" stroke-linecap="round" stroke-width="2" stroke-dasharray="0 5" opacity="0.32"/>
      <ellipse id="Ellipse_2316" data-name="Ellipse 2316" cx="6.929" cy="6.929" rx="6.929" ry="6.929" transform="translate(141.303 61.817)" fill="#fff" opacity="0.88"/>
      <ellipse id="Ellipse_2317" data-name="Ellipse 2317" cx="13.858" cy="13.858" rx="13.858" ry="13.858" transform="translate(89.321 3.083)" fill="#f9fbfc"/>
      <circle id="Ellipse_2318" data-name="Ellipse 2318" cx="25.135" cy="25.135" r="25.135" transform="translate(79.68 114.115)" fill="#f2f5f8"/>
    </g>
    <g id="Group_54499" data-name="Group 54499" transform="translate(680.971 440.128) rotate(130)" opacity="0.31" style="mix-blend-mode: normal;isolation: isolate">
      <g id="Group_54471" data-name="Group 54471" transform="translate(30.165 38.627)">
        <path id="Path_60199" data-name="Path 60199" d="M0,3.509A3.509,3.509,0,1,0,3.508,0,3.509,3.509,0,0,0,0,3.509Z" transform="translate(326.297 0)" fill="#fff"/>
        <path id="Path_60200" data-name="Path 60200" d="M0,3.509A3.509,3.509,0,1,0,3.509,0,3.508,3.508,0,0,0,0,3.509Z" transform="translate(0 309.536)" fill="#fff"/>
      </g>
      <g id="Group_54485" data-name="Group 54485" transform="translate(0 0)">
        <g id="Group_54484" data-name="Group 54484" clip-path="url(#clip-path-3)">
          <g id="Group_54483" data-name="Group 54483" transform="translate(79.843 90.895)">
            <g id="Group_54482" data-name="Group 54482" transform="translate(0 0)">
              <g id="Group_54481" data-name="Group 54481">
                <path id="Path_60256" data-name="Path 60256" d="M0,2.012A2.03,2.03,0,0,0,2.043,4.029,2.032,2.032,0,0,0,4.088,2.012,2.029,2.029,0,0,0,2.043,0,2.026,2.026,0,0,0,0,2.012Z" transform="translate(319.563 163.655)" fill="#fff"/>
                <g id="Group_54479" data-name="Group 54479" transform="translate(306.972 252.823)">
                  <path id="Path_60257" data-name="Path 60257" d="M8.9,5.142,4.45,2.57,0,0V10.29L4.45,7.72Z" transform="translate(0)" fill="#fff"/>
                </g>
                <path id="Path_60258" data-name="Path 60258" d="M0,2.013A2.028,2.028,0,0,0,2.044,4.029,2.027,2.027,0,0,0,4.086,2.013,2.028,2.028,0,0,0,2.044,0,2.028,2.028,0,0,0,0,2.013Z" transform="translate(264.785 304.552)" fill="#fff"/>
                <g id="Group_54480" data-name="Group 54480">
                  <path id="Path_60259" data-name="Path 60259" d="M8.794,0a8.747,8.747,0,0,1,8.8,8.676,8.747,8.747,0,0,1-8.8,8.679A8.748,8.748,0,0,1,0,8.676,8.744,8.744,0,0,1,8.794,0Zm0,16.855a8.245,8.245,0,0,0,8.29-8.179A8.243,8.243,0,0,0,8.794.5,8.244,8.244,0,0,0,.506,8.676,8.245,8.245,0,0,0,8.8,16.855Z" transform="translate(120.37 266.057)" fill="#fff"/>
                  <path id="Path_60260" data-name="Path 60260" d="M13.75,6.784a6.837,6.837,0,0,1-6.875,6.781A6.836,6.836,0,0,1,0,6.784,6.837,6.837,0,0,1,6.875,0,6.839,6.839,0,0,1,13.75,6.784Zm-12.483,0a5.609,5.609,0,0,0,11.216,0,5.609,5.609,0,0,0-11.216,0Z" transform="translate(284.791 191.541)" fill="#fff"/>
                  <path id="Path_60261" data-name="Path 60261" d="M3.077,6.073A3.054,3.054,0,0,1,0,3.035,3.057,3.057,0,0,1,3.077,0,3.056,3.056,0,0,1,6.156,3.035,3.055,3.055,0,0,1,3.077,6.073Z" transform="translate(103.096 261.41)" fill="#fff"/>
                  <path id="Path_60262" data-name="Path 60262" d="M3.08,154.371a3.06,3.06,0,0,1,3.078,3.038,3.015,3.015,0,0,1-.072.651H52.315l9.394-11.051H44.22a2.008,2.008,0,1,1,0-1.249H76.362a12.961,12.961,0,0,1,25.872,0h13.857l16.385-16.165h28.8a3.088,3.088,0,0,1,6.025,0h13.285l-11.6-11.446h-35.7a2.014,2.014,0,1,1,0-1.25h36.226l12.868,12.7h10.8a32.824,32.824,0,0,1,5.751-17.953l-.018.018L186.632,99.543l.886-.873-15.988,9.106-16.182-9.216V80.123l16.182-9.217,16.184,9.217V98.559l-.182.1,12.127,11.962a33.881,33.881,0,0,1,26.668-13.717V90.837l-10.48-5.97v-4.63l-9.268-9.144V86.527l3.831,3.777-.9.886-4.2-4.145v-17.2L196.348,61V38.672l-7.568-7.466a2.005,2.005,0,1,1,1.124-1.791,1.978,1.978,0,0,1-.228.908l7.939,7.833V60.483l18.231,17.985V72.826L201.1,58.281V22.1h1.268V57.764l14.214,14.022,9.742-5.551v-12.9l14.653-14.456v-13.8a3.029,3.029,0,0,1,0-5.944V3.923a2.014,2.014,0,0,1-1.411-1.908,2.045,2.045,0,0,1,4.089,0,2.014,2.014,0,0,1-1.411,1.908v15.2a3.028,3.028,0,0,1,0,5.943V39.4L227.594,53.85V66.234l10.48,5.973v12.66l-6.939,3.954v12.774a29.406,29.406,0,0,1,15.768,7.449l5.417-5.344H275.1a2.014,2.014,0,1,1,.114,1.25h-22.37l-5.03,4.963a28.587,28.587,0,0,1,0,40.613l2.261,2.23a31.757,31.757,0,0,0,9.4-22.537h1.267a32.993,32.993,0,0,1-9.776,23.421l28.053,27.675a2.007,2.007,0,1,1-1.123,1.794,1.975,1.975,0,0,1,.228-.908l-28.069-27.69a33.905,33.905,0,0,1-23.1,9.039V162.3a32.624,32.624,0,0,0,22.2-8.673L246.9,151.4a29.531,29.531,0,0,1-40.2-.3l-10.392,10.253H178.454l-22.106,21.807a1.974,1.974,0,0,1,.121.658,2.043,2.043,0,1,1-2.043-2.016,2.058,2.058,0,0,1,1.151.353l21.085-20.8h-5.147l-22.071,21.773a1.98,1.98,0,0,1,.132.694,2.037,2.037,0,1,1-.92-1.684l21.065-20.783h-25.8a2.016,2.016,0,1,1,0-1.249h27.063l.094-.092.093.092h6.754l.093-.091.092.091h17.667l10.021-9.886a28.614,28.614,0,0,1-8.158-19.989,29.139,29.139,0,0,1,28.682-28.907V98.156a32.322,32.322,0,0,0-31.884,32.063v.625H167.3a3.087,3.087,0,0,1-6.026,0H133l-16.384,16.164H102.234a12.961,12.961,0,0,1-25.872,0h-13l-10.459,12.3H5.48a3.092,3.092,0,0,1-2.4,1.138,3.038,3.038,0,1,1,0-6.076ZM186.445,80.845l-14.915-8.5-14.916,8.5V97.836l14.915,8.5,14.917-8.5Zm50.362-7.919-9.847-5.608-9.849,5.607V84.147l9.849,5.607,9.847-5.607Zm-6.938,16.615-2.275,1.3v10.476c.766.016,1.525.054,2.276.126Zm-2.276,40.938L210.544,147.3a23.7,23.7,0,1,0,17.049-40.618Zm-1.266-.519v-23.28a23.73,23.73,0,0,0-23.241,23.539,23.3,23.3,0,0,0,6.563,16.2Zm.634,27.932a27.667,27.667,0,1,0,.632-55.331v3.619a24.055,24.055,0,1,1-17.407,41.471l-2.593,2.558A28.15,28.15,0,0,0,226.962,157.893ZM198.909,130.22a27.377,27.377,0,0,0,7.788,19.107l2.593-2.558a23.793,23.793,0,0,1-6.713-16.549,24.235,24.235,0,0,1,23.75-24.039v-3.619A27.882,27.882,0,0,0,198.909,130.22ZM89.3,157.912a11.529,11.529,0,1,0-11.686-11.529A11.621,11.621,0,0,0,89.3,157.912Z" transform="translate(39.867 128.35)" fill="#fff"/>
                  <path id="Path_60263" data-name="Path 60263" d="M3.079,0a3.059,3.059,0,0,1,3.08,3.037,3.059,3.059,0,0,1-3.08,3.039A3.06,3.06,0,0,1,0,3.037,3.058,3.058,0,0,1,3.079,0Z" transform="translate(254.964 168.249)" fill="#fff"/>
                  <path id="Path_60264" data-name="Path 60264" d="M3.079,0a3.059,3.059,0,0,1,3.08,3.037,3.059,3.059,0,0,1-3.08,3.038A3.06,3.06,0,0,1,0,3.037,3.058,3.058,0,0,1,3.079,0Z" transform="translate(254.964 177.567)" fill="#fff"/>
                  <path id="Path_60265" data-name="Path 60265" d="M3.078,6.075A3.057,3.057,0,0,1,0,3.038,3.059,3.059,0,0,1,3.078,0a3.059,3.059,0,0,1,3.08,3.038A3.058,3.058,0,0,1,3.078,6.075Z" transform="translate(185.291 209.877)" fill="#fff"/>
                  <path id="Path_60266" data-name="Path 60266" d="M3.077,0a3.057,3.057,0,0,1,3.08,3.038A3.055,3.055,0,0,1,3.077,6.072,3.053,3.053,0,0,1,0,3.037,3.056,3.056,0,0,1,3.077,0Z" transform="translate(185.291 219.195)" fill="#fff"/>
                  <path id="Path_60267" data-name="Path 60267" d="M4.087,2.016A2.027,2.027,0,0,1,2.044,4.03,2.028,2.028,0,0,1,0,2.016,2.03,2.03,0,0,1,2.044,0,2.029,2.029,0,0,1,4.087,2.016Z" transform="translate(289.622 196.309)" fill="#fff"/>
                  <path id="Path_60268" data-name="Path 60268" d="M6.876,0a6.836,6.836,0,0,1,6.873,6.783,6.837,6.837,0,0,1-6.873,6.785A6.84,6.84,0,0,1,0,6.783,6.84,6.84,0,0,1,6.876,0Zm0,12.316a5.578,5.578,0,0,0,5.607-5.534,5.609,5.609,0,0,0-11.216,0A5.578,5.578,0,0,0,6.876,12.316Z" transform="translate(259.953 299.783)" fill="#fff"/>
                  <path id="Path_60269" data-name="Path 60269" d="M0,6.783A6.836,6.836,0,0,1,6.875,0,6.837,6.837,0,0,1,13.75,6.783a6.836,6.836,0,0,1-6.875,6.783A6.837,6.837,0,0,1,0,6.783Zm6.876,5.533a5.577,5.577,0,0,0,5.606-5.533,5.608,5.608,0,0,0-11.215,0A5.578,5.578,0,0,0,6.876,12.316Z" transform="translate(314.731 158.886)" fill="#fff"/>
                  <path id="Path_60270" data-name="Path 60270" d="M6.873,0a6.835,6.835,0,0,1,6.876,6.782,6.836,6.836,0,0,1-6.876,6.782A6.834,6.834,0,0,1,0,6.782,6.836,6.836,0,0,1,6.873,0Zm0,12.315a5.578,5.578,0,0,0,5.608-5.533,5.608,5.608,0,0,0-11.215,0A5.577,5.577,0,0,0,6.873,12.315Z" transform="translate(155.426 294.322)" fill="#fff"/>
                  <path id="Path_60271" data-name="Path 60271" d="M2.044,0A2.029,2.029,0,0,1,4.086,2.016,2.031,2.031,0,0,1,2.042,4.032,2.03,2.03,0,0,1,0,2.016,2.03,2.03,0,0,1,2.044,0Z" transform="translate(160.258 299.088)" fill="#fff"/>
                  <path id="Path_60272" data-name="Path 60272" d="M2.042,4.031A2.025,2.025,0,0,1,0,2.015,2.029,2.029,0,0,1,2.042,0,2.029,2.029,0,0,1,4.084,2.015,2.029,2.029,0,0,1,2.042,4.031Z" transform="translate(289.624 213.086)" fill="#fff"/>
                  <path id="Path_60273" data-name="Path 60273" d="M2.045,17.906a2.043,2.043,0,0,1,.92.225L21.344,0H79.438V1.25H55.521L44.987,11.643H26.039v-1.25H44.462L53.729,1.25H21.868L3.86,19.015a1.977,1.977,0,0,1,.228.909,2.029,2.029,0,0,1-2.043,2.015,2.016,2.016,0,1,1,0-4.032Z" transform="translate(153.776 263.822)" fill="#fff"/>
                  <path id="Path_60274" data-name="Path 60274" d="M26.286,4.032a2.047,2.047,0,0,1-.853-.189L.895,28.051,0,27.164,24.506,2.99a1.971,1.971,0,0,1-.265-.974,2.043,2.043,0,0,1,4.087,0A2.028,2.028,0,0,1,26.286,4.032Z" transform="translate(302.628 126.334)" fill="#fff"/>
                  <path id="Path_60275" data-name="Path 60275" d="M33.444,92.279v22.249l-16.21,15.99v33.8L.9,180.432l-.9-.883L15.967,163.8V80.89L5.487,74.92V62.259l10.48-5.969V0h1.267V56.289l3.336,1.9V26.1a2.044,2.044,0,1,1,1.266,0V58.91l5.881,3.349,0,12.661-10.48,5.971v47.86l14.944-14.741V92.232a2.046,2.046,0,1,1,1.266.047Zm-6.995-29.3-5.607-3.192h-.273v-.156L16.6,57.373,6.754,62.981V74.2l9.847,5.61,9.848-5.61Z" transform="translate(270.193 6.243)" fill="#fff"/>
                  <path id="Path_60276" data-name="Path 60276" d="M1.737,3.121,3.473,0,5.345,3.045,7.216,6.088l-3.608.078L0,6.242Z" transform="translate(274.795 107.849)" fill="#fff"/>
                  <path id="Path_60277" data-name="Path 60277" d="M0,3.692,3.087,1.847,6.17,0l.079,3.559.079,3.558L3.163,5.405Z" transform="translate(93.177 260.888)" fill="#fff"/>
                  <path id="Path_60278" data-name="Path 60278" d="M0,3.694,3.087,1.848,6.173,0l.078,3.561L6.329,7.12,3.165,5.407Z" transform="translate(194.517 192.748)" fill="#fff"/>
                  <path id="Path_60279" data-name="Path 60279" d="M.156,7.119.079,3.559,0,0,3.164,1.714,6.328,3.425,3.242,5.272Z" transform="translate(313.79 196.78)" fill="#fff"/>
                  <path id="Path_60280" data-name="Path 60280" d="M3.473,0,5.346,3.045,7.218,6.092l-3.609.075L0,6.245,1.738,3.124Z" transform="translate(235.65 220.694)" fill="#fff"/>
                  <path id="Path_60281" data-name="Path 60281" d="M0,6.243,1.737,3.121,3.473,0,5.346,3.043,7.217,6.088l-3.609.075Z" transform="translate(243.022 81.218)" fill="#fff"/>
                  <path id="Path_60282" data-name="Path 60282" d="M0,6.243,1.738,3.121,3.473,0,5.345,3.045,7.217,6.09l-3.608.077Z" transform="translate(283.185)" fill="#fff"/>
                  <path id="Path_60283" data-name="Path 60283" d="M5.344,3.045,7.216,6.089l-3.608.076L0,6.243l1.737-3.12L3.473,0Z" transform="translate(274.795 116.363)" fill="#fff"/>
                  <path id="Path_60284" data-name="Path 60284" d="M0,13V4.335L7.609,0l7.608,4.336V13L7.609,17.336ZM14.711,4.624,7.609.578.506,4.624l0,8.089,7.1,4.045,7.1-4.045Z" transform="translate(279.185 66.165)" fill="#fff"/>
                  <path id="Path_60285" data-name="Path 60285" d="M.126,21.636,0,21.565V7.189L12.619,0,25.112,7.117l.128.072V21.564L12.619,28.751ZM24.733,7.475,12.62.577.506,7.475v13.8l12.113,6.9,12.114-6.9Z" transform="translate(198.778 203.315)" fill="#fff"/>
                  <path id="Path_60286" data-name="Path 60286" d="M9.2,2.619V7.86l-4.6,2.62L0,7.86V2.619L4.6,0Z" transform="translate(245.178 290.623)" fill="#fff"/>
                  <path id="Path_60287" data-name="Path 60287" d="M0,4.946v-3.3L2.894,0,5.787,1.651v3.3L2.894,6.595Z" transform="translate(213.882 177.307)" fill="#fff"/>
                  <path id="Path_60288" data-name="Path 60288" d="M0,6.769V2.257L3.961,0,7.922,2.257V6.769L3.961,9.024Z" transform="translate(116.662 242.189)" fill="#fff"/>
                  <path id="Path_60289" data-name="Path 60289" d="M0,4.621,8.114,0l8.113,4.621v9.243L8.115,18.484,0,13.864Zm.507,8.954,7.607,4.333,7.607-4.333V4.912L8.114.579.507,4.912Z" transform="translate(258.714 197.644)" fill="#fff"/>
                  <path id="Path_60290" data-name="Path 60290" d="M1.41,61.078V3.923A2.009,2.009,0,0,1,0,2.016,2.028,2.028,0,0,1,2.043,0,2.028,2.028,0,0,1,4.086,2.016a2.012,2.012,0,0,1-1.41,1.907V61.078Z" transform="translate(244.589 125.156)" fill="#fff"/>
                  <path id="Path_60291" data-name="Path 60291" d="M0,3.163,2.777,1.579,5.552,0V6.325L2.777,4.745Z" transform="translate(63.811 267.863)" fill="#fff"/>
                  <path id="Path_60292" data-name="Path 60292" d="M0,51.138,48.712,3.085a1.975,1.975,0,0,1-.317-1.068,2.044,2.044,0,0,1,4.087,0,2.038,2.038,0,0,1-2.792,1.87L12.879,40.2H25.625l9.346-9.22.9.885L26.15,41.45l-14.538,0L.9,52.021Z" transform="translate(273.211 139.185)" fill="#fff"/>
                  <path id="Path_60293" data-name="Path 60293" d="M6.25,3.56l.078,3.561L3.165,5.4,0,3.692,3.086,1.844,6.172,0Z" transform="translate(216.777 273.823)" fill="#fff"/>
                  <path id="Path_60294" data-name="Path 60294" d="M6.251,3.56l.079,3.56L3.164,5.406,0,3.692,3.086,1.846,6.172,0Z" transform="translate(225.408 273.823)" fill="#fff"/>
                  <path id="Path_60295" data-name="Path 60295" d="M7.165,0,5.441,3.144,3.717,6.289,1.858,3.223,0,.154,3.583.079Z" transform="translate(286.819 306.565)" fill="#fff"/>
                  <path id="Path_60296" data-name="Path 60296" d="M7.166,0,5.441,3.145,3.718,6.289,1.859,3.223,0,.157,3.583.078Z" transform="translate(286.819 297.988)" fill="#fff"/>
                  <path id="Path_60297" data-name="Path 60297" d="M.066,9.781a3.087,3.087,0,0,1,6.027,0l35.324,0L37.652,6.066H19.233a2.008,2.008,0,1,1,0-1.249H38.178L43.21,9.779H56.133L73.306,0V20.812L56.127,11.029H6.092a3.088,3.088,0,0,1-6.027,0H0V9.781Zm71.972,8.864V2.161L57.569,10.4Z" transform="translate(0 260.62)" fill="#fff"/>
                  <path id="Path_60298" data-name="Path 60298" d="M48.739,0l.984.788L39.012,13.8,0,13.8V12.552H38.407Z" transform="translate(56.48 278.762)" fill="#fff"/>
                  <path id="Path_60299" data-name="Path 60299" d="M13.719,7.407a6.847,6.847,0,0,1-6.843,6.157A6.837,6.837,0,0,1,0,6.783a6.879,6.879,0,0,1,13.719-.625h34.29a2.017,2.017,0,1,1-.029,1.249ZM6.876,1.25A5.578,5.578,0,0,0,1.268,6.783a5.609,5.609,0,0,0,11.216,0A5.579,5.579,0,0,0,6.876,1.25Z" transform="translate(284.79 208.319)" fill="#fff"/>
                  <path id="Path_60300" data-name="Path 60300" d="M0,7.86V2.621L4.6,0,9.2,2.621V7.86L4.6,10.479Z" transform="translate(253.444 145.209)" fill="#fff"/>
                  <path id="Path_60301" data-name="Path 60301" d="M4.6,0,9.2,2.62l0,5.24L4.6,10.48,0,7.859V2.62Z" transform="translate(107.14 285.211)" fill="#fff"/>
                  <path id="Path_60302" data-name="Path 60302" d="M21.106,0V24.042L0,12.021ZM19.839,12.02V2.166l-17.3,9.856,17.3,9.856Z" transform="translate(135.349 238.034)" fill="#fff"/>
                  <path id="Path_60303" data-name="Path 60303" d="M10.549,0,21.1,18.024H0Zm0,2.5L2.194,16.775H18.9Z" transform="translate(236.082 103.183)" fill="#fff"/>
                </g>
                <path id="Path_60304" data-name="Path 60304" d="M0,4.879A4.912,4.912,0,0,0,4.947,9.758,4.913,4.913,0,0,0,9.893,4.879,4.915,4.915,0,0,0,4.947,0,4.914,4.914,0,0,0,0,4.879Z" transform="translate(124.219 269.854)" fill="#fff"/>
                <path id="Path_60305" data-name="Path 60305" d="M0,8.515a8.575,8.575,0,0,0,8.632,8.514,8.572,8.572,0,0,0,8.63-8.514A8.573,8.573,0,0,0,8.632,0,8.574,8.574,0,0,0,0,8.515Z" transform="translate(258.197 250.055)" fill="#fff"/>
                <path id="Path_60306" data-name="Path 60306" d="M0,6.168,3.609,8.222,7.217,6.168V2.056L3.609,0,0,2.056Z" transform="translate(283.185 70.721)" fill="#fff"/>
                <path id="Path_60307" data-name="Path 60307" d="M0,12.352l7.227,4.116,7.228-4.116V4.117L7.227,0,0,4.117Z" transform="translate(204.17 209.456)" fill="#fff"/>
                <path id="Path_60308" data-name="Path 60308" d="M0,6.049,3.543,8.065,7.083,6.048V2.016L3.543,0,0,2.016Z" transform="translate(263.286 202.854)" fill="#fff"/>
                <path id="Path_60309" data-name="Path 60309" d="M0,3.711,3.257,5.566,6.515,7.422V0L3.257,1.856Z" transform="translate(145.425 246.345)" fill="#fff"/>
                <path id="Path_60310" data-name="Path 60310" d="M3.206,0,1.6,2.738,0,5.479H6.413l-1.6-2.74Z" transform="translate(243.425 111.84)" fill="#fff"/>
              </g>
            </g>
          </g>
        </g>
      </g>
    </g>
  </g>
</svg>
