<svg id="Component_283_1" data-name="Component 283 – 1" xmlns="http://www.w3.org/2000/svg" width="255.776" height="210.368" viewBox="0 0 255.776 210.368">
  <path id="Path_30170" data-name="Path 30170" d="M114.759,106.965a46.567,46.567,0,0,1-14.066,33.93q-14.066,14.218-35.731,14.218-27.485,0-44.623-24.074A90.6,90.6,0,0,1,3.2,77.236q0-30.053,16.815-63.821T54.453-37.8q17.623-17.45,22.473-17.45,3.234,0,13.581,7.756l3.234,1.939q8.084,5.493,8.084,8.725,0,2.262-8.731,14.542Q69.166,12.284,69.166,32.319q0,15.188,22.8,31.507T114.759,106.965Zm144.217,0q0,19.712-14.228,33.93t-35.569,14.218q-27.485,0-44.623-24.074a90.6,90.6,0,0,1-17.138-53.8q0-43.3,31.2-87.9t42.522-44.594q3.234,0,13.581,7.756l3.234,1.939q8.084,5.493,8.084,8.725,0,2.262-8.731,14.542Q213.06,12.284,213.06,32.319q0,15.188,22.958,31.507T258.976,106.965Z" transform="translate(-3.201 55.254)" fill="#0883e6" opacity="0.15"/>
</svg>
