<svg id="Component_231_1" data-name="Component 231 – 1" xmlns="http://www.w3.org/2000/svg" xmlns:xlink="http://www.w3.org/1999/xlink" width="433" height="781" viewBox="0 0 433 781">
  <defs>
    <clipPath id="clip-path">
      <rect id="Rectangle_10647" data-name="Rectangle 10647" width="433" height="781" transform="translate(0.072 0.175)" fill="#fff"/>
    </clipPath>
    <linearGradient id="linear-gradient" x1="0.73" y1="0.467" x2="0.5" y2="1" gradientUnits="objectBoundingBox">
      <stop offset="0" stop-color="#1587c3"/>
      <stop offset="1" stop-color="#1f568c"/>
    </linearGradient>
    <clipPath id="clip-path-2">
      <rect id="Rectangle_10830" data-name="Rectangle 10830" width="355.513" height="355.513" fill="#fff"/>
    </clipPath>
    <clipPath id="clip-path-3">
      <rect id="Rectangle_10831" data-name="Rectangle 10831" width="355.842" height="355.842" fill="#fff"/>
    </clipPath>
  </defs>
  <g id="Mask_Group_150" data-name="Mask Group 150" transform="translate(-0.072 -0.174)" clip-path="url(#clip-path)">
    <path id="Path_59126" data-name="Path 59126" d="M38.076,0H545.114A38.075,38.075,0,0,1,583.19,38.076V680.917a38.075,38.075,0,0,1-38.075,38.075H38.075A38.075,38.075,0,0,1,0,680.917V38.075A38.075,38.075,0,0,1,38.076,0Z" transform="matrix(-0.656, 0.755, -0.755, -0.656, 957.973, 467.491)" fill="url(#linear-gradient)"/>
    <g id="Group_53686" data-name="Group 53686" transform="translate(271.79 327.142)">
      <path id="Path_59127" data-name="Path 59127" d="M60.345,123.825c34.186-.757,62.6-29.086,63.475-63.275S97.681-.741,63.5.015.89,29.1.02,63.291,26.159,124.582,60.345,123.825Z" transform="translate(20.238 142.413) rotate(-99.405)" fill="none" stroke="#fff" stroke-linecap="round" stroke-width="2" stroke-dasharray="0 5" opacity="0.32"/>
      <ellipse id="Ellipse_2322" data-name="Ellipse 2322" cx="6.192" cy="6.192" rx="6.192" ry="6.192" transform="translate(126.277 55.244)" fill="#fff" opacity="0.88"/>
      <ellipse id="Ellipse_2323" data-name="Ellipse 2323" cx="12.384" cy="12.384" rx="12.384" ry="12.384" transform="translate(79.822 2.756)" fill="#f9fbfc"/>
      <circle id="Ellipse_2324" data-name="Ellipse 2324" cx="22.463" cy="22.463" r="22.463" transform="translate(71.207 101.98)" fill="#f2f5f8"/>
    </g>
    <g id="Group_54501" data-name="Group 54501" transform="matrix(-0.656, 0.755, -0.755, -0.656, 579.832, 401.284)" opacity="0.31" style="mix-blend-mode: normal;isolation: isolate">
      <g id="Group_54471" data-name="Group 54471" transform="translate(27.268 34.918)">
        <path id="Path_60199" data-name="Path 60199" d="M0,3.172A3.172,3.172,0,1,0,3.171,0,3.172,3.172,0,0,0,0,3.172Z" transform="translate(294.962 0)" fill="#fff"/>
        <path id="Path_60200" data-name="Path 60200" d="M0,3.172A3.172,3.172,0,1,0,3.172,0,3.171,3.171,0,0,0,0,3.172Z" transform="translate(0 279.811)" fill="#fff"/>
      </g>
      <g id="Group_54485" data-name="Group 54485" transform="translate(0 0)">
        <g id="Group_54484" data-name="Group 54484" clip-path="url(#clip-path-3)">
          <g id="Group_54483" data-name="Group 54483" transform="translate(72.176 82.166)">
            <g id="Group_54482" data-name="Group 54482" transform="translate(0 0)">
              <g id="Group_54481" data-name="Group 54481">
                <path id="Path_60256" data-name="Path 60256" d="M0,1.819A1.835,1.835,0,0,0,1.846,3.642,1.837,1.837,0,0,0,3.7,1.819,1.835,1.835,0,0,0,1.846,0,1.832,1.832,0,0,0,0,1.819Z" transform="translate(288.875 147.939)" fill="#fff"/>
                <g id="Group_54479" data-name="Group 54479" transform="translate(277.493 228.544)">
                  <path id="Path_60257" data-name="Path 60257" d="M8.046,4.648,4.023,2.323,0,0V9.3L4.023,6.978Z" fill="#fff"/>
                </g>
                <path id="Path_60258" data-name="Path 60258" d="M0,1.819A1.834,1.834,0,0,0,1.848,3.642,1.832,1.832,0,0,0,3.694,1.82,1.833,1.833,0,0,0,1.848,0,1.833,1.833,0,0,0,0,1.819Z" transform="translate(239.357 275.305)" fill="#fff"/>
                <g id="Group_54480" data-name="Group 54480">
                  <path id="Path_60259" data-name="Path 60259" d="M7.95,0A7.907,7.907,0,0,1,15.9,7.843a7.907,7.907,0,0,1-7.952,7.846A7.908,7.908,0,0,1,0,7.843,7.9,7.9,0,0,1,7.95,0Zm0,15.237a7.453,7.453,0,0,0,7.494-7.394A7.451,7.451,0,0,0,7.95.451,7.452,7.452,0,0,0,.457,7.843,7.453,7.453,0,0,0,7.952,15.237Z" transform="translate(108.81 240.507)" fill="#fff"/>
                  <path id="Path_60260" data-name="Path 60260" d="M12.43,6.132a6.18,6.18,0,0,1-6.215,6.13A6.18,6.18,0,0,1,0,6.132,6.18,6.18,0,0,1,6.214,0,6.182,6.182,0,0,1,12.43,6.132Zm-11.285,0a5.07,5.07,0,0,0,10.139,0,5.07,5.07,0,0,0-10.139,0Z" transform="translate(257.441 173.147)" fill="#fff"/>
                  <path id="Path_60261" data-name="Path 60261" d="M2.782,5.49A2.761,2.761,0,0,1,0,2.744,2.763,2.763,0,0,1,2.782,0,2.763,2.763,0,0,1,5.564,2.744,2.761,2.761,0,0,1,2.782,5.49Z" transform="translate(93.195 236.306)" fill="#fff"/>
                  <path id="Path_60262" data-name="Path 60262" d="M2.784,139.546a2.766,2.766,0,0,1,2.783,2.747,2.725,2.725,0,0,1-.065.588H47.291l8.492-9.99H39.973a1.815,1.815,0,1,1,0-1.129H69.029a11.717,11.717,0,0,1,23.388,0h12.527l14.812-14.613h26.033a2.791,2.791,0,0,1,5.447,0h12.009L152.757,106.8H120.484a1.821,1.821,0,1,1,0-1.13h32.747l11.632,11.476h9.766a29.672,29.672,0,0,1,5.2-16.229l-.016.016-11.1-10.953.8-.789-14.453,8.232-14.628-8.331V72.428L155.057,64.1l14.63,8.332V89.094l-.164.093L180.484,100a30.627,30.627,0,0,1,24.107-12.4V82.113l-9.474-5.4V72.531l-8.378-8.266V78.218l3.463,3.414-.809.8-3.8-3.747V63.135l-8.1-7.993V34.958l-6.841-6.749a1.813,1.813,0,1,1,1.016-1.619,1.788,1.788,0,0,1-.206.821l7.177,7.081V54.674l16.48,16.258v-5.1L181.791,52.684V19.975h1.146V52.217l12.849,12.676,8.806-5.018V48.21l13.246-13.068V22.664a2.738,2.738,0,0,1,0-5.373V3.546a1.821,1.821,0,0,1-1.276-1.725,1.848,1.848,0,0,1,3.7,0,1.821,1.821,0,0,1-1.275,1.725V17.289a2.738,2.738,0,0,1,0,5.373v12.95L205.738,48.678v11.2l9.474,5.4V76.716l-6.273,3.574V91.838a26.582,26.582,0,0,1,14.254,6.734l4.9-4.831h20.593a1.821,1.821,0,1,1,.1,1.13H228.563l-4.547,4.487a25.842,25.842,0,0,1,0,36.713l2.044,2.016a28.707,28.707,0,0,0,8.5-20.373h1.145a29.824,29.824,0,0,1-8.837,21.172L252.228,163.9a1.814,1.814,0,1,1-1.015,1.621,1.785,1.785,0,0,1,.206-.821l-25.373-25.031a30.649,30.649,0,0,1-20.88,8.171v-1.13a29.491,29.491,0,0,0,20.069-7.841l-2.044-2.016a26.7,26.7,0,0,1-36.343-.273l-9.394,9.268H161.317l-19.983,19.713a1.784,1.784,0,0,1,.109.6,1.847,1.847,0,1,1-1.846-1.823,1.861,1.861,0,0,1,1.04.319l19.06-18.8h-4.653l-19.951,19.682a1.79,1.79,0,0,1,.119.627,1.841,1.841,0,1,1-.831-1.522l19.042-18.787H130.1a1.822,1.822,0,1,1,0-1.129h24.464l.085-.083.084.083h6.105l.084-.082.084.082h15.97l9.059-8.936a25.866,25.866,0,0,1-7.375-18.07,26.341,26.341,0,0,1,25.928-26.131V88.73a29.218,29.218,0,0,0-28.822,28.984v.565H151.235a2.791,2.791,0,0,1-5.447,0H120.228l-14.811,14.612h-13a11.717,11.717,0,0,1-23.388,0H57.279l-9.455,11.12H4.953a2.8,2.8,0,0,1-2.169,1.029,2.747,2.747,0,1,1,0-5.492ZM168.541,73.081,155.058,65.4l-13.483,7.68v15.36l13.483,7.68,13.484-7.68Zm45.526-7.158-8.9-5.07-8.9,5.068V76.066l8.9,5.069,8.9-5.069Zm-6.272,15.019-2.057,1.172v9.47c.692.014,1.379.048,2.057.114Zm-2.058,37.007-15.412,15.2a21.424,21.424,0,1,0,15.412-36.717Zm-1.144-.469V96.436a21.451,21.451,0,0,0-21.009,21.279,21.064,21.064,0,0,0,5.933,14.641Zm.573,25.25a25.01,25.01,0,1,0,.571-50.018v3.271A21.745,21.745,0,1,1,190,133.472l-2.344,2.313A25.446,25.446,0,0,0,205.166,142.73Zm-25.359-25.016a24.748,24.748,0,0,0,7.04,17.272l2.344-2.313a21.508,21.508,0,0,1-6.068-14.959,21.907,21.907,0,0,1,21.469-21.731V92.712A25.2,25.2,0,0,0,179.807,117.714ZM80.723,142.748A10.422,10.422,0,1,0,70.16,132.325,10.505,10.505,0,0,0,80.723,142.748Z" transform="translate(36.039 116.025)" fill="#fff"/>
                  <path id="Path_60263" data-name="Path 60263" d="M2.783,0A2.765,2.765,0,0,1,5.567,2.745,2.766,2.766,0,0,1,2.783,5.492,2.766,2.766,0,0,1,0,2.745,2.764,2.764,0,0,1,2.783,0Z" transform="translate(230.479 152.092)" fill="#fff"/>
                  <path id="Path_60264" data-name="Path 60264" d="M2.783,0A2.766,2.766,0,0,1,5.567,2.745,2.765,2.765,0,0,1,2.783,5.492,2.766,2.766,0,0,1,0,2.745,2.764,2.764,0,0,1,2.783,0Z" transform="translate(230.479 160.515)" fill="#fff"/>
                  <path id="Path_60265" data-name="Path 60265" d="M2.782,5.492A2.763,2.763,0,0,1,0,2.747,2.765,2.765,0,0,1,2.782,0,2.765,2.765,0,0,1,5.566,2.747,2.764,2.764,0,0,1,2.782,5.492Z" transform="translate(167.497 189.722)" fill="#fff"/>
                  <path id="Path_60266" data-name="Path 60266" d="M2.781,0A2.764,2.764,0,0,1,5.565,2.746,2.762,2.762,0,0,1,2.782,5.489,2.76,2.76,0,0,1,0,2.745,2.763,2.763,0,0,1,2.781,0Z" transform="translate(167.497 198.145)" fill="#fff"/>
                  <path id="Path_60267" data-name="Path 60267" d="M3.694,1.823A1.832,1.832,0,0,1,1.848,3.643,1.834,1.834,0,0,1,0,1.823,1.835,1.835,0,0,1,1.848,0,1.834,1.834,0,0,1,3.694,1.823Z" transform="translate(261.809 177.457)" fill="#fff"/>
                  <path id="Path_60268" data-name="Path 60268" d="M6.216,0a6.179,6.179,0,0,1,6.213,6.132,6.18,6.18,0,0,1-6.213,6.133A6.183,6.183,0,0,1,0,6.132,6.183,6.183,0,0,1,6.216,0Zm0,11.133a5.042,5.042,0,0,0,5.069-5,5.07,5.07,0,0,0-10.139,0A5.042,5.042,0,0,0,6.216,11.133Z" transform="translate(234.989 270.994)" fill="#fff"/>
                  <path id="Path_60269" data-name="Path 60269" d="M0,6.131A6.18,6.18,0,0,1,6.215,0,6.18,6.18,0,0,1,12.43,6.131a6.18,6.18,0,0,1-6.215,6.131A6.18,6.18,0,0,1,0,6.131Zm6.216,5a5.041,5.041,0,0,0,5.068-5,5.069,5.069,0,0,0-10.138,0A5.042,5.042,0,0,0,6.216,11.133Z" transform="translate(284.506 143.627)" fill="#fff"/>
                  <path id="Path_60270" data-name="Path 60270" d="M6.213,0a6.179,6.179,0,0,1,6.215,6.131,6.18,6.18,0,0,1-6.215,6.131A6.178,6.178,0,0,1,0,6.131,6.179,6.179,0,0,1,6.213,0Zm0,11.132a5.042,5.042,0,0,0,5.07-5,5.07,5.07,0,0,0-10.138,0A5.041,5.041,0,0,0,6.213,11.132Z" transform="translate(140.5 266.057)" fill="#fff"/>
                  <path id="Path_60271" data-name="Path 60271" d="M1.848,0A1.834,1.834,0,0,1,3.693,1.822,1.836,1.836,0,0,1,1.846,3.645,1.835,1.835,0,0,1,0,1.822,1.835,1.835,0,0,1,1.848,0Z" transform="translate(144.868 270.366)" fill="#fff"/>
                  <path id="Path_60272" data-name="Path 60272" d="M1.845,3.644A1.831,1.831,0,0,1,0,1.822,1.834,1.834,0,0,1,1.845,0,1.834,1.834,0,0,1,3.692,1.822,1.834,1.834,0,0,1,1.845,3.644Z" transform="translate(261.811 192.623)" fill="#fff"/>
                  <path id="Path_60273" data-name="Path 60273" d="M1.849,16.186a1.847,1.847,0,0,1,.831.2L19.294,0H71.81V1.13H50.189l-9.522,9.4H23.538V9.4H40.192L48.569,1.13h-28.8L3.49,17.189a1.787,1.787,0,0,1,.206.822,1.834,1.834,0,0,1-1.847,1.821,1.823,1.823,0,1,1,0-3.645Z" transform="translate(139.008 238.486)" fill="#fff"/>
                  <path id="Path_60274" data-name="Path 60274" d="M23.761,3.645a1.851,1.851,0,0,1-.771-.171L.809,25.357,0,24.555,22.153,2.7a1.782,1.782,0,0,1-.239-.881,1.847,1.847,0,0,1,3.694,0A1.833,1.833,0,0,1,23.761,3.645Z" transform="translate(273.565 114.202)" fill="#fff"/>
                  <path id="Path_60275" data-name="Path 60275" d="M30.232,83.417V103.53L15.579,117.984v30.55L.81,163.1l-.81-.8,14.434-14.239V73.122l-9.474-5.4V56.28l9.474-5.4V0h1.145V50.884L18.594,52.6V23.591a1.847,1.847,0,1,1,1.144,0V53.253l5.316,3.027,0,11.445-9.474,5.4v43.264l13.509-13.325V83.375a1.85,1.85,0,1,1,1.144.042ZM23.909,56.932l-5.069-2.886h-.247v-.141l-3.587-2.043-8.9,5.07V67.073l8.9,5.071,8.9-5.071Z" transform="translate(244.245 5.643)" fill="#fff"/>
                  <path id="Path_60276" data-name="Path 60276" d="M1.57,2.822,3.139,0,4.832,2.753,6.523,5.5l-3.261.07L0,5.643Z" transform="translate(248.406 97.492)" fill="#fff"/>
                  <path id="Path_60277" data-name="Path 60277" d="M0,3.337,2.79,1.669,5.577,0l.072,3.217L5.72,6.434,2.859,4.886Z" transform="translate(84.229 235.834)" fill="#fff"/>
                  <path id="Path_60278" data-name="Path 60278" d="M0,3.339,2.791,1.671,5.58,0l.07,3.219.07,3.217L2.861,4.888Z" transform="translate(175.837 174.238)" fill="#fff"/>
                  <path id="Path_60279" data-name="Path 60279" d="M.141,6.435.071,3.217,0,0,2.86,1.549,5.721,3.1,2.931,4.766Z" transform="translate(283.656 177.883)" fill="#fff"/>
                  <path id="Path_60280" data-name="Path 60280" d="M3.139,0,4.833,2.752,6.525,5.507l-3.262.068L0,5.645,1.571,2.824Z" transform="translate(213.02 199.5)" fill="#fff"/>
                  <path id="Path_60281" data-name="Path 60281" d="M0,5.643,1.57,2.821,3.139,0,4.832,2.75,6.524,5.5l-3.262.068Z" transform="translate(219.684 73.418)" fill="#fff"/>
                  <path id="Path_60282" data-name="Path 60282" d="M0,5.643,1.571,2.822,3.139,0,4.832,2.753,6.524,5.505l-3.262.07Z" transform="translate(255.99 0)" fill="#fff"/>
                  <path id="Path_60283" data-name="Path 60283" d="M4.831,2.753,6.523,5.5l-3.261.069L0,5.644l1.57-2.82L3.139,0Z" transform="translate(248.406 105.188)" fill="#fff"/>
                  <path id="Path_60284" data-name="Path 60284" d="M0,11.753V3.919L6.878,0l6.877,3.919v7.834L6.878,15.671ZM13.3,4.18,6.878.522.457,4.18l0,7.313,6.419,3.656,6.42-3.657Z" transform="translate(252.374 59.811)" fill="#fff"/>
                  <path id="Path_60285" data-name="Path 60285" d="M.114,19.559,0,19.494V6.5L11.407,0,22.7,6.434l.116.065V19.493l-11.409,6.5Zm22.244-12.8L11.408.522.457,6.757V19.232l10.95,6.237,10.951-6.238Z" transform="translate(179.689 183.79)" fill="#fff"/>
                  <path id="Path_60286" data-name="Path 60286" d="M8.315,2.368V7.106L4.158,9.474,0,7.106V2.368L4.158,0Z" transform="translate(221.633 262.714)" fill="#fff"/>
                  <path id="Path_60287" data-name="Path 60287" d="M0,4.471V1.492L2.616,0,5.231,1.492V4.471L2.616,5.961Z" transform="translate(193.343 160.28)" fill="#fff"/>
                  <path id="Path_60288" data-name="Path 60288" d="M0,6.119V2.04L3.581,0,7.161,2.04V6.119L3.581,8.157Z" transform="translate(105.458 218.931)" fill="#fff"/>
                  <path id="Path_60289" data-name="Path 60289" d="M0,4.177,7.335,0l7.333,4.177v8.355L7.336,16.709,0,12.532Zm.459,8.094,6.877,3.917,6.876-3.917V4.44L7.335.523.459,4.44Z" transform="translate(233.869 178.664)" fill="#fff"/>
                  <path id="Path_60290" data-name="Path 60290" d="M1.274,55.213V3.546A1.816,1.816,0,0,1,0,1.822,1.833,1.833,0,0,1,1.847,0,1.834,1.834,0,0,1,3.693,1.822,1.819,1.819,0,0,1,2.418,3.546V55.212Z" transform="translate(221.1 113.137)" fill="#fff"/>
                  <path id="Path_60291" data-name="Path 60291" d="M0,2.859,2.51,1.428,5.019,0V5.717L2.51,4.29Z" transform="translate(57.683 242.139)" fill="#fff"/>
                  <path id="Path_60292" data-name="Path 60292" d="M0,46.227,44.034,2.788a1.786,1.786,0,0,1-.286-.965,1.847,1.847,0,0,1,3.695,0,1.843,1.843,0,0,1-2.524,1.69L11.642,36.34H23.164l8.448-8.334.81.8-8.783,8.662H10.5L.811,47.025Z" transform="translate(246.974 125.819)" fill="#fff"/>
                  <path id="Path_60293" data-name="Path 60293" d="M5.65,3.218l.071,3.219L2.861,4.886,0,3.338,2.789,1.667,5.579,0Z" transform="translate(195.959 247.527)" fill="#fff"/>
                  <path id="Path_60294" data-name="Path 60294" d="M5.651,3.218l.071,3.218L2.86,4.887,0,3.338,2.79,1.669,5.579,0Z" transform="translate(203.762 247.527)" fill="#fff"/>
                  <path id="Path_60295" data-name="Path 60295" d="M6.477,0,4.918,2.842,3.36,5.685,1.68,2.913,0,.139,3.239.071Z" transform="translate(259.275 277.125)" fill="#fff"/>
                  <path id="Path_60296" data-name="Path 60296" d="M6.478,0,4.919,2.843,3.361,5.685,1.681,2.913,0,.142,3.239.07Z" transform="translate(259.275 269.372)" fill="#fff"/>
                  <path id="Path_60297" data-name="Path 60297" d="M.059,8.841a2.791,2.791,0,0,1,5.448,0H37.439l-3.4-3.357H17.386a1.816,1.816,0,1,1,0-1.129H34.511L39.061,8.84H50.743L66.266,0V18.813L50.737,9.97H5.507a2.792,2.792,0,0,1-5.448,0H0V8.841ZM65.12,16.854V1.954L52.041,9.4Z" transform="translate(0 235.592)" fill="#fff"/>
                  <path id="Path_60298" data-name="Path 60298" d="M44.058,0l.89.713L35.265,12.477,0,12.475V11.346H34.718Z" transform="translate(51.056 251.992)" fill="#fff"/>
                  <path id="Path_60299" data-name="Path 60299" d="M12.4,6.7a6.19,6.19,0,0,1-6.185,5.566A6.181,6.181,0,0,1,0,6.132a6.218,6.218,0,0,1,12.4-.565h31A1.824,1.824,0,1,1,43.372,6.7ZM6.216,1.13a5.042,5.042,0,0,0-5.07,5,5.07,5.07,0,0,0,10.139,0A5.043,5.043,0,0,0,6.216,1.13Z" transform="translate(257.441 188.314)" fill="#fff"/>
                  <path id="Path_60300" data-name="Path 60300" d="M0,7.105V2.369L4.158,0,8.316,2.369V7.105L4.158,9.473Z" transform="translate(229.105 131.264)" fill="#fff"/>
                  <path id="Path_60301" data-name="Path 60301" d="M4.159,0,8.316,2.369V7.106L4.158,9.473,0,7.1V2.369Z" transform="translate(96.851 257.821)" fill="#fff"/>
                  <path id="Path_60302" data-name="Path 60302" d="M19.079,0V21.733L0,10.867ZM17.934,10.866V1.958L2.292,10.867l15.641,8.909Z" transform="translate(122.351 215.175)" fill="#fff"/>
                  <path id="Path_60303" data-name="Path 60303" d="M9.536,0l9.536,16.293H0Zm0,2.261-7.552,12.9h15.1Z" transform="translate(213.411 93.274)" fill="#fff"/>
                </g>
                <path id="Path_60304" data-name="Path 60304" d="M0,4.411a4.44,4.44,0,0,0,4.472,4.41,4.441,4.441,0,0,0,4.471-4.41A4.443,4.443,0,0,0,4.472,0,4.442,4.442,0,0,0,0,4.411Z" transform="translate(112.29 243.939)" fill="#fff"/>
                <path id="Path_60305" data-name="Path 60305" d="M0,7.7a7.751,7.751,0,0,0,7.8,7.7,7.749,7.749,0,0,0,7.8-7.7A7.75,7.75,0,0,0,7.8,0,7.75,7.75,0,0,0,0,7.7Z" transform="translate(233.402 226.042)" fill="#fff"/>
                <path id="Path_60306" data-name="Path 60306" d="M0,5.576,3.262,7.432,6.524,5.576V1.859L3.262,0,0,1.859Z" transform="translate(255.99 63.93)" fill="#fff"/>
                <path id="Path_60307" data-name="Path 60307" d="M0,11.166l6.533,3.721,6.533-3.721V3.722L6.533,0,0,3.722Z" transform="translate(184.563 189.341)" fill="#fff"/>
                <path id="Path_60308" data-name="Path 60308" d="M0,5.468,3.2,7.29,6.4,5.467V1.823L3.2,0,0,1.823Z" transform="translate(238.002 183.373)" fill="#fff"/>
                <path id="Path_60309" data-name="Path 60309" d="M0,3.355,2.944,5.032,5.889,6.709V0L2.944,1.678Z" transform="translate(131.459 222.688)" fill="#fff"/>
                <path id="Path_60310" data-name="Path 60310" d="M2.9,0,1.448,2.475,0,4.953H5.8L4.347,2.475Z" transform="translate(220.048 101.1)" fill="#fff"/>
              </g>
            </g>
          </g>
        </g>
      </g>
    </g>
  </g>
</svg>
