<svg xmlns="http://www.w3.org/2000/svg" width="190.592" height="285.969" viewBox="0 0 190.592 285.969">
  <g id="Component_227_3" data-name="Component 227 – 3" transform="translate(0 0)">
    <g id="Group_74124" data-name="Group 74124" transform="translate(-315.959 -616.064)" opacity="0.25" style="mix-blend-mode: normal;isolation: isolate">
      <path id="Path_115800" data-name="Path 115800" d="M90.737,110.736,99.5,124.2c18.364-6.368,42.349-25.4,61.137-33.211l-7.869-16.851C141.5,77.9,118.866,92.623,106.362,99.422c-2.787,1.513-5.095,2.643-7.642,4.335C92.794,107.686,94.612,106.108,90.737,110.736Z" transform="translate(341.033 749.379)" fill="#fff" fill-rule="evenodd"/>
      <path id="Path_115801" data-name="Path 115801" d="M94.785,99.784c1.9,5.376,5.25,10.339,7.839,13.975l36.2-21.784c.257-.227.825-.771,1.22-1.178l-6.691-11.834Z" transform="translate(361.19 773.427)" fill="#fff" fill-rule="evenodd"/>
      <path id="Path_115802" data-name="Path 115802" d="M98.009,97.64a40.773,40.773,0,0,0,5.424,9.663l25.031-15.063c.179-.156.568-.538.843-.819l-4.628-8.18Z" transform="translate(377.244 794.729)" fill="#fff" fill-rule="evenodd"/>
      <path id="Path_115803" data-name="Path 115803" d="M123.125,216.418c-5.9-9.059-5.9-6.763-11.756-19.781-9.837-21.88-5.537-49.955,8.82-69.114a32.556,32.556,0,0,0,3.367-4.652c4.311-2.822,10.847-13.544,30.413-21.354,1.824-.724,9.245-3.612,11.362-3.845l.652-.018c1.064.09.173-.2.867.275a79.155,79.155,0,0,1-1.088,9.58,83.144,83.144,0,0,0-1.148,10c8.264-1.92,70.83-25.605,74.059-25.874-.592-2.219-4.64-5.794-6.345-7.481L186.373,45.344c-1.573-1.3-6.715-5.46-8.372-5.9-.173,2.1-3.5,22.37-4.82,24.182-1.6,2.207-3.2,2.511-5.334,3.6l-.592.323-23.53,4.1c-5.657,1.405-15.135,4.742-20.122,7.5a95.163,95.163,0,0,0-18.2,12.181c-.921.771-1.369,1.423-2.254,2.207a86.8,86.8,0,0,0-15.906,18.89,103.134,103.134,0,0,0-15.876,53.62v.251c.03,22.137,4.682,39.831,16.259,57.2.646.969,1.154,1.609,1.848,2.613,1.256,1.812,2.553,3.211,3.941,4.981,7.714,9.855,18.4,16.881,29.217,22.938,6.285,3.151,18.071,8.031,26.365,9.071,4.592,1.973,19.452,2.057,25.438,2.093,5.34.03,13.389-1.292,18.543-2.422,1.13-.251,1.908-.46,2.876-.7l2.667-.873c6.171-.664,15.482-5.675,20.965-8.5,1.483-.771,2.583-1.4,4-2.254a77.814,77.814,0,0,0,29.014-30.76h0l-12.492-4.461c-2.47,3.7-8.91,8.677-11.051,10.811a27.952,27.952,0,0,1-2.266,2.195,72.867,72.867,0,0,1-10.19,7.206,55.153,55.153,0,0,1-12.438,5.412l-5.214,1.471c-.15.036-.58.149-.712.191l-.664.239a1.636,1.636,0,0,0-.317.132c-5.119,0-10.357,2.667-25.444.933-11.918-1.369-19.44-5.531-21.378-5.7-.544-.49-.12-.161-.861-.58-11.595-6.661-12.9-6.859-23.351-17.724C124.781,218.41,124.68,217.782,123.125,216.418Z" transform="translate(244.589 576.622)" fill="#fff" fill-rule="evenodd"/>
    </g>
  </g>
</svg>
