<svg id="download" xmlns="http://www.w3.org/2000/svg" width="27.607" height="27.607" viewBox="0 0 27.607 27.607">
  <path id="download-2" data-name="download" d="M11.647,0H15.96a1.291,1.291,0,0,1,1.294,1.294v9.059h4.729a1.076,1.076,0,0,1,.76,1.839l-8.2,8.207a1.045,1.045,0,0,1-1.472,0L4.858,12.191a1.076,1.076,0,0,1,.76-1.839h4.734V1.294A1.291,1.291,0,0,1,11.647,0Zm15.96,20.274v6.039a1.291,1.291,0,0,1-1.294,1.294H1.294A1.291,1.291,0,0,1,0,26.313V20.274A1.291,1.291,0,0,1,1.294,18.98H9.2l2.642,2.642a2.763,2.763,0,0,0,3.915,0L18.4,18.98h7.91A1.291,1.291,0,0,1,27.607,20.274Zm-6.686,4.745A1.078,1.078,0,1,0,19.842,26.1,1.082,1.082,0,0,0,20.921,25.019Zm3.451,0A1.078,1.078,0,1,0,23.293,26.1,1.082,1.082,0,0,0,24.372,25.019Z" fill="#0883E6"/>
</svg>
