<svg id="ic_contact_mail_24px" xmlns="http://www.w3.org/2000/svg" width="40.447" height="30.335" viewBox="0 0 40.447 30.335">
  <path id="ic_contact_mail_24px-2" data-name="ic_contact_mail_24px" d="M35.391,11.426V9.741l-5.056,3.371L25.279,9.741v1.685L30.335,14.8ZM37.077,3H3.371A3.381,3.381,0,0,0,0,6.371V29.965a3.381,3.381,0,0,0,3.371,3.371H37.077a3.366,3.366,0,0,0,3.354-3.371l.017-23.594A3.38,3.38,0,0,0,37.077,3ZM13.482,8.056a5.056,5.056,0,1,1-5.056,5.056A5.049,5.049,0,0,1,13.482,8.056ZM23.594,28.279H3.371V26.594c0-3.371,6.741-5.224,10.112-5.224s10.112,1.854,10.112,5.224ZM37.077,18.168H23.594V8.056H37.077Z" transform="translate(0 -3)" fill="#0883e6"/>
</svg>
