<svg id="ic_event_available_24px" xmlns="http://www.w3.org/2000/svg" width="30.335" height="33.706" viewBox="0 0 30.335 33.706">
  <path id="ic_event_available_24px-2" data-name="ic_event_available_24px" d="M25.8,17.954l-1.786-1.786-8.224,8.224-3.573-3.573-1.786,1.786,5.359,5.359L25.8,17.954ZM29.965,4.371H28.279V1H24.909V4.371H11.426V1H8.056V4.371H6.371A3.355,3.355,0,0,0,3.017,7.741L3,31.335a3.37,3.37,0,0,0,3.371,3.371H29.965a3.38,3.38,0,0,0,3.371-3.371V7.741A3.38,3.38,0,0,0,29.965,4.371Zm0,26.965H6.371V12.8H29.965Z" transform="translate(-3 -1)" fill="#0883e6"/>
</svg>
