<svg id="ic_face_24px" xmlns="http://www.w3.org/2000/svg" width="33.706" height="33.706" viewBox="0 0 33.706 33.706">
  <path id="ic_face_24px-2" data-name="ic_face_24px" d="M13.8,18.432A2.107,2.107,0,1,0,15.9,20.538,2.107,2.107,0,0,0,13.8,18.432Zm10.112,0a2.107,2.107,0,1,0,2.107,2.107A2.107,2.107,0,0,0,23.909,18.432ZM18.853,2A16.853,16.853,0,1,0,35.706,18.853,16.859,16.859,0,0,0,18.853,2Zm0,30.335A13.5,13.5,0,0,1,5.371,18.853,13.664,13.664,0,0,1,5.455,17.4a16.957,16.957,0,0,0,8.78-9.05,16.809,16.809,0,0,0,13.752,7.129,16.449,16.449,0,0,0,3.792-.438A13.462,13.462,0,0,1,18.853,32.335Z" transform="translate(-2 -2)" fill="#0883e6"/>
</svg>
