<svg id="ic_important_devices_24px" xmlns="http://www.w3.org/2000/svg" width="40.447" height="33.706" viewBox="0 0 40.447 33.706">
  <path id="ic_important_devices_24px-2" data-name="ic_important_devices_24px" d="M38.762,17.185l-8.426-.017a1.69,1.69,0,0,0-1.685,1.685V34.021a1.69,1.69,0,0,0,1.685,1.685h8.426a1.69,1.69,0,0,0,1.685-1.685V18.853A1.676,1.676,0,0,0,38.762,17.185Zm0,15.151H30.335v-11.8h8.426ZM33.706,2H3.371A3.359,3.359,0,0,0,0,5.371V25.594a3.37,3.37,0,0,0,3.371,3.371h11.8v3.371H11.8v3.371H25.279V32.335H21.909V28.965h3.371V25.594H3.371V5.371H33.706V13.8h3.371V5.371A3.37,3.37,0,0,0,33.706,2ZM20.173,13.8,18.538,8.741,16.9,13.8H11.8l4.163,2.966-1.584,4.9,4.163-3.034L22.7,21.667l-1.584-4.9L25.279,13.8Z" transform="translate(0 -2)" fill="#0883e6"/>
</svg>
