<svg id="Icon_awesome-linkedin" data-name="Icon awesome-linkedin" xmlns="http://www.w3.org/2000/svg" width="30.543" height="30.543" viewBox="0 0 30.543 30.543">
  <path id="Icon_awesome-linkedin-2" data-name="Icon awesome-linkedin" d="M28.361,2.25H2.175A2.191,2.191,0,0,0,0,4.452V30.591a2.191,2.191,0,0,0,2.175,2.2H28.361a2.2,2.2,0,0,0,2.182-2.2V4.452A2.2,2.2,0,0,0,28.361,2.25ZM9.231,28.429H4.7V13.853H9.238V28.429ZM6.968,11.863A2.625,2.625,0,1,1,9.592,9.238,2.626,2.626,0,0,1,6.968,11.863ZM26.2,28.429H21.673v-7.09c0-1.691-.034-3.866-2.352-3.866-2.359,0-2.72,1.841-2.72,3.743v7.213H12.074V13.853h4.343v1.991h.061a4.768,4.768,0,0,1,4.288-2.352c4.581,0,5.434,3.02,5.434,6.947Z" transform="translate(0 -2.25)" fill="#fff"/>
</svg>
