<svg id="Icon_awesome-facebook-square" data-name="Icon awesome-facebook-square" xmlns="http://www.w3.org/2000/svg" width="37.603" height="37.603" viewBox="0 0 37.603 37.603">
  <path id="Icon_awesome-facebook-square-2" data-name="Icon awesome-facebook-square" d="M33.574,2.25H4.029A4.029,4.029,0,0,0,0,6.279V35.824a4.029,4.029,0,0,0,4.029,4.029h11.52V27.069H10.261V21.051h5.288V16.465c0-5.217,3.106-8.1,7.862-8.1a32.035,32.035,0,0,1,4.66.406v5.12H25.447c-2.586,0-3.393,1.6-3.393,3.251v3.907h5.773L26.9,27.069h-4.85V39.853h11.52A4.029,4.029,0,0,0,37.6,35.824V6.279A4.029,4.029,0,0,0,33.574,2.25Z" transform="translate(0 -2.25)" fill="#fff"/>
</svg>
