<svg id="Icon_awesome-twitter" data-name="Icon awesome-twitter" xmlns="http://www.w3.org/2000/svg" width="37.603" height="30.541" viewBox="0 0 37.603 30.541">
  <path id="Icon_awesome-twitter-2" data-name="Icon awesome-twitter" d="M33.738,10.992c.024.334.024.668.024,1,0,10.188-7.754,21.927-21.927,21.927A21.779,21.779,0,0,1,0,30.462a15.943,15.943,0,0,0,1.861.1,15.434,15.434,0,0,0,9.568-3.293A7.72,7.72,0,0,1,4.223,21.92a9.719,9.719,0,0,0,1.456.119,8.151,8.151,0,0,0,2.028-.262,7.708,7.708,0,0,1-6.18-7.564v-.1A7.761,7.761,0,0,0,5.01,15.1,7.718,7.718,0,0,1,2.625,4.788a21.906,21.906,0,0,0,15.891,8.065,8.7,8.7,0,0,1-.191-1.766A7.714,7.714,0,0,1,31.662,5.814a15.173,15.173,0,0,0,4.891-1.861A7.686,7.686,0,0,1,33.165,8.2,15.45,15.45,0,0,0,37.6,7.007a16.567,16.567,0,0,1-3.865,3.985Z" transform="translate(0 -3.381)" fill="#fff"/>
</svg>
