<svg id="Icon_awesome-instagram" data-name="Icon awesome-instagram" xmlns="http://www.w3.org/2000/svg" width="37.614" height="37.605" viewBox="0 0 37.614 37.605">
  <path id="Icon_awesome-instagram-2" data-name="Icon awesome-instagram" d="M18.806,11.4a9.641,9.641,0,1,0,9.641,9.641A9.626,9.626,0,0,0,18.806,11.4Zm0,15.91a6.268,6.268,0,1,1,6.268-6.268A6.28,6.28,0,0,1,18.806,27.308ZM31.09,11a2.249,2.249,0,1,1-2.249-2.249A2.244,2.244,0,0,1,31.09,11Zm6.386,2.282c-.143-3.012-.831-5.681-3.038-7.879S29.572,2.521,26.559,2.37c-3.1-.176-12.411-.176-15.515,0-3,.143-5.672.831-7.879,3.029S.278,10.266.127,13.278c-.176,3.1-.176,12.411,0,15.515.143,3.012.831,5.681,3.038,7.879s4.867,2.887,7.879,3.038c3.1.176,12.411.176,15.515,0,3.012-.143,5.681-.831,7.879-3.038s2.887-4.867,3.038-7.879c.176-3.1.176-12.4,0-15.507ZM33.465,32.125A6.346,6.346,0,0,1,29.89,35.7c-2.475.982-8.349.755-11.085.755s-8.618.218-11.085-.755a6.346,6.346,0,0,1-3.575-3.575c-.982-2.475-.755-8.349-.755-11.085s-.218-8.618.755-11.085A6.346,6.346,0,0,1,7.721,6.381C10.2,5.4,16.07,5.626,18.806,5.626s8.618-.218,11.085.755a6.346,6.346,0,0,1,3.575,3.575c.982,2.475.755,8.349.755,11.085S34.447,29.658,33.465,32.125Z" transform="translate(0.005 -2.238)" fill="#fff"/>
</svg>
