<svg id="noun-trust-2714621" xmlns="http://www.w3.org/2000/svg" width="62.301" height="41.03" viewBox="0 0 62.301 41.03">
  <path id="Path_76397" data-name="Path 76397" d="M460.567,170.547l-.59-4.719a7.552,7.552,0,0,0-4.85-6.161,6.977,6.977,0,0,0,2.294-5.244,7.144,7.144,0,1,0-11.994,5.244,7.55,7.55,0,0,0-4.85,6.161l-.59,4.785a3.021,3.021,0,0,0,2.294,3.277,40.386,40.386,0,0,0,15.862,0,3.176,3.176,0,0,0,2.424-3.343Zm-10.29-20.908a4.785,4.785,0,1,1-4.784,4.785A4.812,4.812,0,0,1,450.276,149.639Zm7.472,21.826a38.235,38.235,0,0,1-14.944,0,.51.51,0,0,1-.393-.59l.59-4.785a5.166,5.166,0,0,1,5.112-4.523h4.457a5.166,5.166,0,0,1,5.112,4.523l.59,4.719a.8.8,0,0,1-.524.655Z" transform="translate(-398.278 -142.297)" fill="#1587c3"/>
  <path id="Path_76398" data-name="Path 76398" d="M104.407,170.55l-.59-4.719a7.551,7.551,0,0,0-4.85-6.161,6.977,6.977,0,0,0,2.294-5.244,7.144,7.144,0,1,0-11.994,5.244,7.55,7.55,0,0,0-4.85,6.161l-.59,4.785a3.021,3.021,0,0,0,2.294,3.277,40.386,40.386,0,0,0,15.862,0,3.176,3.176,0,0,0,2.424-3.343Zm-10.29-20.908a4.785,4.785,0,1,1-4.785,4.785A4.811,4.811,0,0,1,94.117,149.642Zm7.472,21.826a38.234,38.234,0,0,1-14.944,0,.51.51,0,0,1-.393-.59l.524-4.785a5.166,5.166,0,0,1,5.112-4.523h4.457a5.166,5.166,0,0,1,5.112,4.523l.59,4.719a.651.651,0,0,1-.458.656Z" transform="translate(-83.803 -142.301)" fill="#1587c3"/>
  <path id="Path_76399" data-name="Path 76399" d="M236.017,112.055a1.063,1.063,0,0,0,.918-.459c2.228-2.818,6.489-4.523,11.011-4.523a15.22,15.22,0,0,1,9.242,2.884l-2.032.065a1.232,1.232,0,0,0-1.18,1.245,1.175,1.175,0,0,0,1.18,1.18h.065l4.85-.131a1.232,1.232,0,0,0,1.18-1.245l-.131-4.85a1.213,1.213,0,0,0-2.425.066l.065,1.9a17.558,17.558,0,0,0-10.88-3.474c-5.375,0-10.159,2.032-12.912,5.44a1.239,1.239,0,0,0,.2,1.7,2.26,2.26,0,0,0,.853.2Z" transform="translate(-217.052 -104.714)" fill="#1587c3"/>
  <path id="Path_76400" data-name="Path 76400" d="M260.631,389.494c-2.228,2.818-6.489,4.523-11.011,4.523a15.22,15.22,0,0,1-9.242-2.884l2.032-.065a1.213,1.213,0,1,0-.066-2.425l-4.85.131a1.155,1.155,0,0,0-.852.393,1.381,1.381,0,0,0-.328.852l.131,4.85a1.175,1.175,0,0,0,1.18,1.18h.065a1.232,1.232,0,0,0,1.18-1.245l-.13-1.836a17.558,17.558,0,0,0,10.88,3.474c5.375,0,10.159-2.032,12.912-5.44a1.239,1.239,0,0,0-.2-1.7,1.3,1.3,0,0,0-1.7.2Z" transform="translate(-218.464 -355.411)" fill="#1587c3"/>
  <path id="Path_76401" data-name="Path 76401" d="M275.643,262.126l5.571,5.571a2.5,2.5,0,0,0,1.7.721,2.378,2.378,0,0,0,1.7-.721l5.7-5.7a5.227,5.227,0,0,0,1.507-3.933,5.231,5.231,0,0,0-8.914-3.474,5.226,5.226,0,0,0-3.933-1.507,5.233,5.233,0,0,0-3.342,9.045Zm1.573-5.44a2.3,2.3,0,0,1,1.835-.918h.131a2.815,2.815,0,0,1,1.835.721l.918.918a1.345,1.345,0,0,0,1.9,0l.786-.786a2.636,2.636,0,0,1,3.539-.262,2.3,2.3,0,0,1,.918,1.835,2.469,2.469,0,0,1-.721,1.9l-5.44,5.505-5.375-5.375a2.717,2.717,0,0,1-.327-3.539Z" transform="translate(-251.763 -235.711)" fill="#1587c3"/>
  <path id="Path_76402" data-name="Path 76402" d="M341.423,187.481v-2.491a1.311,1.311,0,1,0-2.621,0v2.491a1.311,1.311,0,1,0,2.621,0Z" transform="translate(-308.957 -174.438)" fill="#1587c3"/>
  <path id="Path_76403" data-name="Path 76403" d="M292.043,200.4a1.352,1.352,0,0,0,1.114.656,1.264,1.264,0,0,0,.656-.2,1.169,1.169,0,0,0,.59-.786,1.271,1.271,0,0,0-.131-.983l-1.245-2.229a1.169,1.169,0,0,0-.786-.59,1.271,1.271,0,0,0-.983.131,1.246,1.246,0,0,0-.459,1.77Z" transform="translate(-266.392 -185.518)" fill="#1587c3"/>
  <path id="Path_76404" data-name="Path 76404" d="M377.172,201.222a1.247,1.247,0,0,0,1.77-.459l1.245-2.163a1.31,1.31,0,0,0,.131-.983,1.22,1.22,0,0,0-.59-.786,1.271,1.271,0,0,0-1.77.459l-1.246,2.1a1.311,1.311,0,0,0-.131.983,1.157,1.157,0,0,0,.59.853Z" transform="translate(-342.281 -185.884)" fill="#1587c3"/>
</svg>
