<svg id="server" xmlns="http://www.w3.org/2000/svg" width="38.95" height="34.081" viewBox="0 0 38.95 34.081">
  <path id="server-2" data-name="server" d="M36.515,41.737H2.434A2.434,2.434,0,0,1,0,39.3V34.434A2.434,2.434,0,0,1,2.434,32H36.515a2.434,2.434,0,0,1,2.434,2.434V39.3A2.434,2.434,0,0,1,36.515,41.737Zm-3.652-6.694a1.826,1.826,0,1,0,1.826,1.826A1.826,1.826,0,0,0,32.864,35.043Zm-4.869,0a1.826,1.826,0,1,0,1.826,1.826A1.826,1.826,0,0,0,28,35.043Zm8.52,18.866H2.434A2.434,2.434,0,0,1,0,51.475V46.606a2.434,2.434,0,0,1,2.434-2.434H36.515a2.434,2.434,0,0,1,2.434,2.434v4.869A2.434,2.434,0,0,1,36.515,53.909Zm-3.652-6.694a1.826,1.826,0,1,0,1.826,1.826A1.826,1.826,0,0,0,32.864,47.215Zm-4.869,0a1.826,1.826,0,1,0,1.826,1.826A1.826,1.826,0,0,0,28,47.215Zm8.52,18.866H2.434A2.434,2.434,0,0,1,0,63.647V58.778a2.434,2.434,0,0,1,2.434-2.434H36.515a2.434,2.434,0,0,1,2.434,2.434v4.869A2.434,2.434,0,0,1,36.515,66.081Zm-3.652-6.694a1.826,1.826,0,1,0,1.826,1.826A1.826,1.826,0,0,0,32.864,59.387Zm-4.869,0a1.826,1.826,0,1,0,1.826,1.826A1.826,1.826,0,0,0,28,59.387Z" transform="translate(0 -32)" fill="#0883e6"/>
</svg>
